<svg width="500" height="500" viewBox="0 0 500 500" fill="none" xmlns="http://www.w3.org/2000/svg">
<path d="M449.9 398.49H416.78V398.74H449.9V398.49Z" fill="#EBEBEB"/>
<path d="M331.22 401.21H322.53V401.46H331.22V401.21Z" fill="#EBEBEB"/>
<path d="M415.78 389.21H396.59V389.46H415.78V389.21Z" fill="#EBEBEB"/>
<path d="M95.65 390.89H52.46V391.14H95.65V390.89Z" fill="#EBEBEB"/>
<path d="M110.89 390.89H104.56V391.14H110.89V390.89Z" fill="#EBEBEB"/>
<path d="M225.15 395.11H131.47V395.36H225.15V395.11Z" fill="#EBEBEB"/>
<path d="M500 382.4H0V382.65H500V382.4Z" fill="#EBEBEB"/>
<path d="M353.41 375.87L381.06 370.08V226.94H389.88V370.08L417.53 375.87C419.098 376.202 420.505 377.063 421.516 378.308C422.526 379.553 423.078 381.107 423.08 382.71H347.86C347.862 381.107 348.414 379.553 349.424 378.308C350.434 377.063 351.841 376.202 353.41 375.87Z" fill="#E6E6E6"/>
<path d="M386.12 230.8H369.12C365.788 230.8 362.489 230.144 359.411 228.869C356.333 227.594 353.537 225.725 351.181 223.369C348.825 221.013 346.956 218.217 345.681 215.139C344.406 212.061 343.75 208.762 343.75 205.43V166.74C343.75 160.011 346.423 153.558 351.181 148.801C355.939 144.043 362.392 141.37 369.12 141.37H386.12V230.8Z" fill="#E6E6E6"/>
<path d="M370.33 220H386.12V230.8H370.33C363.294 230.8 356.546 228.005 351.57 223.029C346.595 218.054 343.8 211.306 343.8 204.27V193.46C343.798 196.945 344.484 200.396 345.816 203.616C347.149 206.836 349.103 209.761 351.567 212.226C354.03 214.691 356.956 216.646 360.175 217.98C363.394 219.313 366.845 220 370.33 220Z" fill="#E0E0E0"/>
<path d="M383.61 230.8H408.62C416.413 230.8 422.73 224.483 422.73 216.69V155.49C422.73 147.697 416.413 141.38 408.62 141.38H383.61C375.817 141.38 369.5 147.697 369.5 155.49V216.69C369.5 224.483 375.817 230.8 383.61 230.8Z" fill="#F0F0F0"/>
<path d="M396.11 182.01C405.853 182.01 413.75 174.112 413.75 164.37C413.75 154.628 405.853 146.73 396.11 146.73C386.368 146.73 378.47 154.628 378.47 164.37C378.47 174.112 386.368 182.01 396.11 182.01Z" fill="#E0E0E0"/>
<path d="M413.638 208.287C414.597 198.592 407.516 189.955 397.821 188.996C388.126 188.037 379.489 195.119 378.53 204.814C377.571 214.509 384.652 223.146 394.347 224.105C404.042 225.064 412.679 217.982 413.638 208.287Z" fill="#E0E0E0"/>
<path d="M398.474 178.859C406.488 177.559 411.93 170.008 410.629 161.994C409.328 153.98 401.777 148.538 393.763 149.839C385.75 151.14 380.308 158.691 381.609 166.705C382.91 174.718 390.46 180.16 398.474 178.859Z" fill="#EBEBEB"/>
<path d="M390.23 164.37C390.228 165.536 390.572 166.676 391.218 167.646C391.865 168.616 392.785 169.373 393.861 169.82C394.938 170.267 396.123 170.384 397.267 170.157C398.41 169.93 399.46 169.369 400.285 168.545C401.109 167.721 401.67 166.67 401.897 165.527C402.124 164.383 402.007 163.198 401.56 162.121C401.113 161.045 400.356 160.125 399.386 159.478C398.416 158.832 397.276 158.488 396.11 158.49C394.55 158.49 393.055 159.109 391.952 160.212C390.849 161.315 390.23 162.811 390.23 164.37Z" fill="#E0E0E0"/>
<path d="M396.11 221.26C404.229 221.26 410.81 214.679 410.81 206.56C410.81 198.441 404.229 191.86 396.11 191.86C387.992 191.86 381.41 198.441 381.41 206.56C381.41 214.679 387.992 221.26 396.11 221.26Z" fill="#EBEBEB"/>
<path d="M396.11 212.44C399.357 212.44 401.99 209.807 401.99 206.56C401.99 203.313 399.357 200.68 396.11 200.68C392.863 200.68 390.23 203.313 390.23 206.56C390.23 209.807 392.863 212.44 396.11 212.44Z" fill="#E0E0E0"/>
<path d="M135.56 377L112.29 372.12V251.6H104.86V372.08L81.5899 377C80.2701 377.277 79.0859 378 78.2356 379.047C77.3854 380.094 76.9209 381.401 76.9199 382.75H140.23C140.229 381.401 139.764 380.094 138.914 379.047C138.064 378 136.88 377.277 135.56 377Z" fill="#E6E6E6"/>
<path d="M108 179.58H116.69C123.835 179.58 130.687 182.418 135.739 187.471C140.792 192.523 143.63 199.375 143.63 206.52V227.91C143.63 235.055 140.792 241.907 135.739 246.959C130.687 252.012 123.835 254.85 116.69 254.85H108V179.58Z" fill="#E6E6E6"/>
<path d="M121.32 245.75H108V254.85H121.3C124.232 254.85 127.136 254.272 129.845 253.15C132.555 252.028 135.016 250.383 137.09 248.31C139.163 246.236 140.808 243.774 141.93 241.065C143.052 238.356 143.63 235.452 143.63 232.52V223.42C143.63 229.339 141.28 235.015 137.097 239.203C132.913 243.39 127.239 245.745 121.32 245.75Z" fill="#E0E0E0"/>
<path d="M107.03 179.58H92.19C83.9167 179.58 77.21 186.287 77.21 194.56V239.87C77.21 248.143 83.9167 254.85 92.19 254.85H107.03C115.303 254.85 122.01 248.143 122.01 239.87V194.56C122.01 186.287 115.303 179.58 107.03 179.58Z" fill="#F0F0F0"/>
<path d="M110.124 209.44C115.923 203.641 115.923 194.239 110.124 188.439C104.325 182.64 94.9224 182.64 89.1231 188.439C83.3238 194.239 83.3238 203.641 89.1231 209.44C94.9224 215.24 104.325 215.24 110.124 209.44Z" fill="#E0E0E0"/>
<path d="M99.62 249.3C107.821 249.3 114.47 242.651 114.47 234.45C114.47 226.249 107.821 219.6 99.62 219.6C91.4186 219.6 84.77 226.249 84.77 234.45C84.77 242.651 91.4186 249.3 99.62 249.3Z" fill="#E0E0E0"/>
<path d="M108.371 207.687C113.201 202.856 113.201 195.024 108.371 190.193C103.54 185.362 95.7076 185.362 90.8768 190.193C86.046 195.024 86.046 202.856 90.8768 207.687C95.7076 212.518 103.54 212.518 108.371 207.687Z" fill="#EBEBEB"/>
<path d="M99.6199 203.89C102.354 203.89 104.57 201.674 104.57 198.94C104.57 196.206 102.354 193.99 99.6199 193.99C96.8861 193.99 94.6699 196.206 94.6699 198.94C94.6699 201.674 96.8861 203.89 99.6199 203.89Z" fill="#E0E0E0"/>
<path d="M99.62 246.82C106.452 246.82 111.99 241.282 111.99 234.45C111.99 227.618 106.452 222.08 99.62 222.08C92.7882 222.08 87.25 227.618 87.25 234.45C87.25 241.282 92.7882 246.82 99.62 246.82Z" fill="#EBEBEB"/>
<path d="M99.6199 239.4C102.354 239.4 104.57 237.184 104.57 234.45C104.57 231.716 102.354 229.5 99.6199 229.5C96.8861 229.5 94.6699 231.716 94.6699 234.45C94.6699 237.184 96.8861 239.4 99.6199 239.4Z" fill="#E0E0E0"/>
<path d="M291.3 105.27V109.86C297.954 104.911 305.463 101.23 313.45 99L314.54 94.85C306.221 96.8712 298.343 100.403 291.3 105.27Z" fill="#E6E6E6"/>
<path d="M283.06 118.48C284.581 116.271 286.227 114.151 287.99 112.13L287.39 107.19C285.19 109.55 283.44 111.67 282.15 113.36L283.06 118.48Z" fill="#EBEBEB"/>
<path d="M104.67 121V124.36C109.534 120.745 115.022 118.057 120.86 116.43L121.66 113.43C115.583 114.897 109.825 117.463 104.67 121Z" fill="#E6E6E6"/>
<path d="M98.6602 130.68C99.7663 129.059 100.968 127.507 102.26 126.03L101.82 122.42C100.21 124.14 98.9402 125.7 97.9902 126.93L98.6602 130.68Z" fill="#EBEBEB"/>
<path d="M283.18 79.53C284.31 77.53 285.51 75.62 286.75 73.76L285.37 68.47C283.9 70.47 282.48 72.62 281.13 74.83L283.18 79.53Z" fill="#F0F0F0"/>
<path d="M274.74 106.78C276.334 98.9175 278.705 91.2331 281.82 83.84L279 80C275.698 87.4316 273.119 95.1639 271.3 103.09L274.74 106.78Z" fill="#E6E6E6"/>
<path d="M387 102.27L389.42 100.65C385.453 100.516 381.486 100.926 377.63 101.87C375.02 102.39 371.08 103.18 370.37 102.44C370.37 102.44 369.6 101.56 370.67 97.35C371.62 93.66 370.25 91.57 368.94 90.46C361.54 84.21 332.34 95.73 320.87 100.63L319.95 103.26L325.22 103.9C343.07 96.51 362.29 91.01 365.91 94.06C366.06 94.19 366.53 94.58 366.12 96.19C365.31 99.34 364.68 103.27 366.96 105.68C369.46 108.31 373.68 107.46 378.56 106.48C382.45 105.69 386.77 104.85 390.64 105.54L387 102.27Z" fill="#F0F0F0"/>
<path d="M218.71 86.28C217.954 85.5591 217.055 85.0037 216.072 84.6491C215.089 84.2944 214.043 84.1483 213 84.22C214.41 78.6 214.3 72.38 210.62 69.66C205.87 66.14 200.92 71.83 196.55 76.84C194.1 79.65 190.74 83.51 189.55 82.64C188.64 82 191.28 77.32 192.55 75.07C194.9 70.89 197.12 66.93 196.12 64.07C195.922 63.5223 195.606 63.0247 195.194 62.6118C194.783 62.199 194.287 61.881 193.74 61.68C188.66 59.62 181.44 64.96 176.99 68.99V73.11C181.72 68.43 188.99 62.97 192.62 64.46C192.771 64.5007 192.91 64.5762 193.026 64.6804C193.143 64.7846 193.233 64.9146 193.29 65.06C193.85 66.65 191.59 70.67 189.94 73.6C187.25 78.38 184.71 82.9 187.83 85.09C191.28 87.51 194.96 83.28 198.83 78.81C203.08 73.93 206.51 70.34 208.83 72.07C211.45 74.01 211.22 79.85 209.69 84.91C205.69 86.33 202.07 89.71 201.69 92.34C201.603 92.8626 201.665 93.3994 201.87 93.888C202.076 94.3766 202.416 94.7968 202.85 95.1C203.59 95.61 206.25 96.97 209.32 92.7C210.452 91.0468 211.36 89.2513 212.02 87.36C212.818 87.1399 213.659 87.1245 214.465 87.315C215.27 87.5055 216.015 87.8958 216.63 88.45C219.63 91.33 216.36 98.45 213.5 103.1L214.33 107.29C215.937 105.004 217.352 102.589 218.56 100.07C221.55 93.7 221.6 89.06 218.71 86.28ZM206.88 91C206.33 91.77 205.28 93 204.67 92.74C204.78 92.09 205.97 90.49 208.01 89.14C207.676 89.7848 207.299 90.4062 206.88 91Z" fill="#F0F0F0"/>
<path d="M165.28 84.59H168.28C155.32 74.16 142 74 141.39 74V78.3C150.394 78.9361 158.968 82.3892 165.9 88.17L165.28 84.59Z" fill="#E6E6E6"/>
<path d="M134.89 90.5199C134.794 89.463 134.47 88.4395 133.94 87.5199C131.94 84.1199 127.45 83.0399 120.61 84.3199L123.54 86.0199L122.73 87.0199C126.6 86.4999 130.73 86.7599 131.73 89.8599C130.828 89.8155 129.928 89.9798 129.1 90.3399C126.52 91.4899 125.21 94.4799 125.21 99.2399C125.21 101.29 125.84 102.56 127.06 103C127.324 103.091 127.601 103.138 127.88 103.14C128.78 103.14 129.97 102.66 131.39 100.94C133.085 98.8252 134.242 96.3304 134.76 93.6699C137.284 94.8635 139.621 96.4162 141.7 98.2799L143.7 96.0399C141.103 93.7066 138.122 91.8392 134.89 90.5199ZM128.23 99.8899C128.216 99.6735 128.216 99.4564 128.23 99.2399C128.23 96.8599 128.6 93.8499 130.34 93.0799C130.725 92.9156 131.141 92.8339 131.56 92.8399H131.89C131.409 95.5054 130.133 97.9631 128.23 99.8899Z" fill="#F0F0F0"/>
<path d="M131.71 89.8599C130.808 89.8155 129.908 89.9797 129.08 90.3399C129.047 90.3381 129.013 90.3381 128.98 90.3399C129.9 90.7399 130.3 91.9499 130.46 92.9799C130.799 92.8531 131.158 92.7888 131.52 92.7899H131.85C132.153 91.8276 132.103 90.789 131.71 89.8599Z" fill="#E0E0E0"/>
<path d="M250 427.01C357.082 427.01 443.89 421.942 443.89 415.69C443.89 409.438 357.082 404.37 250 404.37C142.917 404.37 56.1099 409.438 56.1099 415.69C56.1099 421.942 142.917 427.01 250 427.01Z" fill="#F5F5F5"/>
<path d="M427.41 373.24L426.65 372.95C426.73 372.73 434.92 350.79 430.65 328.62C428.12 315.57 430.7 306.85 433.19 298.43C435.08 292.04 436.87 286.02 436.64 278.2C436.11 260.03 426.84 249.42 426.74 249.32L427.35 248.77C427.45 248.88 436.91 259.69 437.46 278.17C437.69 286.12 435.8 292.49 433.98 298.66C431.51 306.99 428.98 315.61 431.45 328.47C435.77 350.87 427.5 373 427.41 373.24Z" fill="#2A98FD"/>
<path d="M422.25 371.11L421.44 370.99C421.44 370.82 423.73 353.81 418.5 337.06C415.92 328.81 416.5 321.13 416.98 314.34C417.51 306.95 417.98 300.56 414.46 295.18C412.776 292.682 410.518 290.623 407.875 289.175C405.233 287.728 402.282 286.934 399.27 286.86V286.04C399.37 286.04 409.39 285.89 415.17 294.73C418.84 300.35 418.37 306.86 417.82 314.4C417.34 321.11 416.82 328.72 419.31 336.82C424.57 353.74 422.28 370.93 422.25 371.11Z" fill="#2A98FD"/>
<path d="M442.83 364.37L438.53 408C438.355 409.719 437.55 411.312 436.271 412.473C434.991 413.635 433.328 414.282 431.6 414.29H417.28C415.55 414.284 413.884 413.638 412.603 412.477C411.321 411.315 410.515 409.721 410.34 408L406.05 364.34L442.83 364.37Z" fill="#2A98FD"/>
<path opacity="0.5" d="M442.83 364.37L438.53 408C438.355 409.719 437.55 411.312 436.271 412.473C434.991 413.635 433.328 414.282 431.6 414.29H417.28C415.55 414.284 413.884 413.638 412.603 412.477C411.321 411.315 410.515 409.721 410.34 408L406.05 364.34L442.83 364.37Z" fill="white"/>
<path d="M434 294.11C434 294.11 438.19 285.45 442.73 292.47C446.41 298.17 441.87 303.75 441.87 303.75C441.87 303.75 419.87 302.63 424.45 294.55C427.29 289.58 434 294.11 434 294.11Z" fill="#2A98FD"/>
<path opacity="0.5" d="M434 294.11C434 294.11 438.19 285.45 442.73 292.47C446.41 298.17 441.87 303.75 441.87 303.75C441.87 303.75 419.87 302.63 424.45 294.55C427.29 289.58 434 294.11 434 294.11Z" fill="white"/>
<path d="M434.71 294.59C434.71 294.59 441.26 294.08 441.26 294.59C441.26 295.1 435.53 294.89 436.01 295.64C436.49 296.39 441.94 297.41 441.94 298.09C441.94 298.77 436.86 296.73 437.05 297.34C437.24 297.95 440.51 301.03 440.51 301.78C440.51 302.53 437.51 298.37 437.05 298.78C436.59 299.19 436.14 302.71 435.87 301.87C435.6 301.03 436.28 297.5 435.53 296.74C434.78 295.98 429.73 300.07 428.71 299.39C427.69 298.71 434.17 296.67 434.71 294.59Z" fill="#2A98FD"/>
<path d="M431.3 294.68C431.3 294.68 425.91 294.34 425.64 295.78C425.37 297.22 426.66 295.78 431.3 294.68Z" fill="#2A98FD"/>
<path d="M436.05 266.15C436.05 266.15 436.22 259.53 441.05 262.64C444.98 265.17 443.73 269.97 443.73 269.97C443.73 269.97 429.61 275.52 430.18 269.15C430.54 265.23 436.05 266.15 436.05 266.15Z" fill="#2A98FD"/>
<path opacity="0.5" d="M436.05 266.15C436.05 266.15 436.22 259.53 441.05 262.64C444.98 265.17 443.73 269.97 443.73 269.97C443.73 269.97 429.61 275.52 430.18 269.15C430.54 265.23 436.05 266.15 436.05 266.15Z" fill="white"/>
<path d="M436.62 266.26C436.62 266.26 440.62 264.08 440.72 264.4C440.82 264.72 437.21 266.22 437.72 266.55C438.23 266.88 441.94 265.98 442.14 266.4C442.34 266.82 438.57 266.99 438.86 267.33C439.15 267.67 442.07 268.65 442.29 269.12C442.51 269.59 439.42 267.85 439.29 268.22C439.16 268.59 439.84 270.95 439.43 270.5C439.02 270.05 438.43 267.64 437.76 267.38C437.09 267.12 435.07 271.12 434.24 270.98C433.41 270.84 436.87 267.72 436.62 266.26Z" fill="#2A98FD"/>
<path d="M434.5 267.29C434.5 267.29 431.03 268.61 431.26 269.59C431.49 270.57 431.9 269.3 434.5 267.29Z" fill="#2A98FD"/>
<path d="M429.69 318.91C429.69 318.91 435.11 307.72 440.97 316.79C445.72 324.16 439.86 331.37 439.86 331.37C439.86 331.37 411.46 329.91 417.36 319.48C421 313.06 429.69 318.91 429.69 318.91Z" fill="#2A98FD"/>
<path opacity="0.7" d="M429.69 318.91C429.69 318.91 435.11 307.72 440.97 316.79C445.72 324.16 439.86 331.37 439.86 331.37C439.86 331.37 411.46 329.91 417.36 319.48C421 313.06 429.69 318.91 429.69 318.91Z" fill="white"/>
<path d="M430.58 319.53C430.58 319.53 439.03 318.87 439.03 319.53C439.03 320.19 431.63 319.92 432.25 320.89C432.87 321.86 439.91 323.18 439.91 324.06C439.91 324.94 433.35 322.3 433.59 323.06C433.83 323.82 438.06 327.81 438.06 328.78C438.06 329.75 434.15 324.38 433.59 324.91C433.03 325.44 432.42 329.99 432.07 328.91C431.72 327.83 432.6 323.26 431.63 322.29C430.66 321.32 424.14 326.59 422.82 325.71C421.5 324.83 429.88 322.22 430.58 319.53Z" fill="#2A98FD"/>
<path d="M426.17 319.65C426.17 319.65 419.17 319.21 418.86 321.06C418.55 322.91 420.18 321.06 426.17 319.65Z" fill="#2A98FD"/>
<path d="M427.32 249C427.32 249 426.02 236.64 417.44 243.19C410.44 248.5 413.53 257.27 413.53 257.27C413.53 257.27 440.74 265.54 438.73 253.72C437.49 246.47 427.32 249 427.32 249Z" fill="#2A98FD"/>
<path opacity="0.7" d="M427.32 249C427.32 249 426.02 236.64 417.44 243.19C410.44 248.5 413.53 257.27 413.53 257.27C413.53 257.27 440.74 265.54 438.73 253.72C437.49 246.47 427.32 249 427.32 249Z" fill="white"/>
<path d="M426.28 249.31C426.28 249.31 418.55 245.82 418.33 246.44C418.11 247.06 425.16 249.32 424.25 250.02C423.34 250.72 416.25 249.57 415.96 250.4C415.67 251.23 422.73 250.97 422.23 251.63C421.73 252.29 416.42 254.63 416.09 255.5C415.76 256.37 421.26 252.69 421.61 253.37C421.96 254.05 420.98 258.55 421.68 257.64C422.38 256.73 423.1 252.15 424.35 251.56C425.6 250.97 429.93 258.15 431.47 257.77C433.01 257.39 426 252.08 426.28 249.31Z" fill="#2A98FD"/>
<path d="M430.38 250.92C430.38 250.92 437.08 252.92 436.78 254.73C436.48 256.54 435.54 254.28 430.38 250.92Z" fill="#2A98FD"/>
<path d="M432.6 342.31C432.6 342.31 428.38 333.6 423.82 340.67C420.12 346.4 424.68 352.02 424.68 352.02C424.68 352.02 446.79 350.89 442.2 342.76C439.37 337.76 432.6 342.31 432.6 342.31Z" fill="#2A98FD"/>
<path opacity="0.7" d="M432.6 342.31C432.6 342.31 428.38 333.6 423.82 340.67C420.12 346.4 424.68 352.02 424.68 352.02C424.68 352.02 446.79 350.89 442.2 342.76C439.37 337.76 432.6 342.31 432.6 342.31Z" fill="white"/>
<path d="M431.91 342.8C431.91 342.8 425.33 342.29 425.33 342.8C425.33 343.31 431.09 343.1 430.61 343.86C430.13 344.62 424.61 345.64 424.61 346.32C424.61 347 429.71 344.95 429.53 345.57C429.35 346.19 426.05 349.27 426.05 350.03C426.05 350.79 429.1 346.6 429.53 347.03C429.96 347.46 430.44 350.98 430.71 350.14C430.98 349.3 430.3 345.74 431.06 344.98C431.82 344.22 436.89 348.33 437.92 347.65C438.95 346.97 432.45 344.89 431.91 342.8Z" fill="#2A98FD"/>
<path d="M435.34 342.9C435.34 342.9 440.76 342.55 441.03 343.99C441.3 345.43 440 344 435.34 342.9Z" fill="#2A98FD"/>
<path d="M421.92 353.23C421.92 353.23 417.25 349.08 416.28 354.42C415.5 358.75 419.6 360.97 419.6 360.97C419.6 360.97 432.5 354.82 427.75 351.11C424.83 348.83 421.92 353.23 421.92 353.23Z" fill="#2A98FD"/>
<path opacity="0.5" d="M421.92 353.23C421.92 353.23 417.25 349.08 416.28 354.42C415.5 358.75 419.6 360.97 419.6 360.97C419.6 360.97 432.5 354.82 427.75 351.11C424.83 348.83 421.92 353.23 421.92 353.23Z" fill="white"/>
<path d="M421.63 353.68C421.63 353.68 417.58 355.01 417.71 355.31C417.84 355.61 421.22 354.07 421.12 354.64C421.02 355.21 418 357.18 418.17 357.58C418.34 357.98 420.88 355.5 420.92 355.92C420.96 356.34 419.76 358.98 419.92 359.43C420.08 359.88 420.92 356.64 421.24 356.78C421.56 356.92 422.77 358.91 422.72 358.33C422.67 357.75 421.39 355.82 421.65 355.18C421.91 354.54 425.95 355.73 426.39 355.07C426.83 354.41 422.47 354.8 421.63 353.68Z" fill="#2A98FD"/>
<path d="M423.7 352.89C423.7 352.89 426.84 351.35 427.36 352.14C427.88 352.93 426.75 352.39 423.7 352.89Z" fill="#2A98FD"/>
<path d="M417.18 335.55C417.18 335.55 411.53 330.55 410.35 336.99C409.35 342.24 414.35 344.93 414.35 344.93C414.35 344.93 430 337.48 424.25 333C420.71 330.23 417.18 335.55 417.18 335.55Z" fill="#2A98FD"/>
<path opacity="0.5" d="M417.18 335.55C417.18 335.55 411.53 330.55 410.35 336.99C409.35 342.24 414.35 344.93 414.35 344.93C414.35 344.93 430 337.48 424.25 333C420.71 330.23 417.18 335.55 417.18 335.55Z" fill="white"/>
<path d="M416.83 336.1C416.83 336.1 411.93 337.71 412.08 338.1C412.23 338.49 416.33 336.59 416.21 337.28C416.09 337.97 412.44 340.36 412.64 340.85C412.84 341.34 415.92 338.33 415.97 338.85C416.02 339.37 414.57 342.57 414.79 343.11C415.01 343.65 415.97 339.72 416.4 339.89C416.83 340.06 418.24 342.47 418.19 341.78C418.14 341.09 416.57 338.73 416.89 337.95C417.21 337.17 422.1 338.62 422.64 337.82C423.18 337.02 417.85 337.45 416.83 336.1Z" fill="#2A98FD"/>
<path d="M419.34 335.15C419.34 335.15 423.15 333.27 423.78 334.23C424.41 335.19 423 334.54 419.34 335.15Z" fill="#2A98FD"/>
<path d="M418.4 305.6C418.4 305.6 424.06 300.6 425.23 307.04C426.18 312.29 421.23 314.98 421.23 314.98C421.23 314.98 405.6 307.53 411.35 303.04C414.88 300.28 418.4 305.6 418.4 305.6Z" fill="#2A98FD"/>
<path opacity="0.5" d="M418.4 305.6C418.4 305.6 424.06 300.6 425.23 307.04C426.18 312.29 421.23 314.98 421.23 314.98C421.23 314.98 405.6 307.53 411.35 303.04C414.88 300.28 418.4 305.6 418.4 305.6Z" fill="white"/>
<path d="M418.75 306.15C418.75 306.15 423.66 307.76 423.5 308.15C423.34 308.54 419.25 306.64 419.37 307.33C419.49 308.02 423.15 310.41 422.94 310.9C422.73 311.39 419.67 308.38 419.62 308.9C419.57 309.42 421.02 312.62 420.79 313.16C420.56 313.7 419.62 309.77 419.18 309.94C418.74 310.11 417.34 312.52 417.4 311.83C417.46 311.14 419.01 308.78 418.7 308C418.39 307.22 413.48 308.68 412.94 307.87C412.4 307.06 417.73 307.51 418.75 306.15Z" fill="#2A98FD"/>
<path d="M416.24 305.2C416.24 305.2 412.43 303.32 411.81 304.28C411.19 305.24 412.55 304.59 416.24 305.2Z" fill="#2A98FD"/>
<path d="M399.85 286.09C399.85 286.09 392.96 280.09 391.48 287.88C390.28 294.24 396.34 297.45 396.34 297.45C396.34 297.45 415.53 288.33 408.52 282.94C404.2 279.62 399.85 286.09 399.85 286.09Z" fill="#2A98FD"/>
<path opacity="0.5" d="M399.85 286.09C399.85 286.09 392.96 280.09 391.48 287.88C390.28 294.24 396.34 297.45 396.34 297.45C396.34 297.45 415.53 288.33 408.52 282.94C404.2 279.62 399.85 286.09 399.85 286.09Z" fill="white"/>
<path d="M399.42 286.76C399.42 286.76 393.42 288.76 393.59 289.18C393.76 289.6 398.8 287.33 398.65 288.18C398.5 289.03 394.01 291.93 394.26 292.53C394.51 293.13 398.26 289.45 398.34 290.06C398.42 290.67 396.6 294.56 396.87 295.22C397.14 295.88 398.33 291.11 398.87 291.31C399.41 291.51 401.11 294.42 401.05 293.59C400.99 292.76 399.05 289.91 399.48 288.97C399.91 288.03 405.86 289.74 406.48 288.76C407.1 287.78 400.66 288.39 399.42 286.76Z" fill="#2A98FD"/>
<path d="M402.49 285.58C402.49 285.58 407.17 283.29 407.93 284.44C408.69 285.59 407 284.82 402.49 285.58Z" fill="#2A98FD"/>
<path d="M83.2904 388.19C83.1834 388.18 83.0841 388.13 83.0119 388.051C82.9397 387.971 82.8999 387.868 82.9004 387.76C83.3804 368.76 84.3604 337.64 84.4104 337.47C84.4428 337.367 84.514 337.28 84.6091 337.227C84.7041 337.175 84.8157 337.162 84.9204 337.19C84.9731 337.204 85.0225 337.228 85.0655 337.262C85.1084 337.295 85.1441 337.337 85.1704 337.385C85.1966 337.432 85.2128 337.485 85.2179 337.539C85.2231 337.594 85.2171 337.648 85.2004 337.7C85.2004 337.7 84.2004 368.99 83.7304 387.78C83.7252 387.891 83.6777 387.995 83.5976 388.071C83.5175 388.148 83.4111 388.19 83.3004 388.19H83.2904Z" fill="#263238"/>
<path d="M80.7404 324.79C80.9004 326.25 82.6504 331.32 84.1104 331.16C85.5704 331 86.1904 325.68 86.0304 324.22C85.993 323.873 85.8875 323.536 85.72 323.23C85.5525 322.923 85.3263 322.652 85.0542 322.433C84.7821 322.214 84.4695 322.051 84.1343 321.952C83.7991 321.854 83.4478 321.823 83.1004 321.86C82.7531 321.897 82.4165 322.003 82.1099 322.17C81.8033 322.338 81.5327 322.564 81.3136 322.836C81.0944 323.108 80.931 323.421 80.8327 323.756C80.7343 324.091 80.703 324.443 80.7404 324.79Z" fill="#2A98FD"/>
<path d="M87.8302 340.78C87.6702 339.32 85.9202 334.25 84.4602 334.41C83.0002 334.57 82.3802 339.9 82.5402 341.36C82.6171 342.062 82.9695 342.704 83.5199 343.145C84.0704 343.587 84.7737 343.792 85.4752 343.715C86.1767 343.638 86.8189 343.286 87.2605 342.735C87.7022 342.185 87.9071 341.482 87.8302 340.78Z" fill="#2A98FD"/>
<path d="M76.2903 336.34C77.7503 336.18 82.8203 334.43 82.6603 332.96C82.5003 331.49 77.1803 330.88 75.6603 331.04C74.9873 331.152 74.3827 331.518 73.9706 332.061C73.5586 332.605 73.3703 333.286 73.4446 333.964C73.5188 334.643 73.8498 335.267 74.3697 335.708C74.8896 336.15 75.559 336.376 76.2403 336.34H76.2903Z" fill="#2A98FD"/>
<path d="M92.2804 329.24C90.8204 329.4 85.7504 331.15 85.9104 332.61C86.0704 334.07 91.3904 334.69 92.9104 334.53C93.6119 334.453 94.2541 334.101 94.6958 333.55C95.1374 333 95.3423 332.296 95.2654 331.595C95.1885 330.893 94.8361 330.251 94.2857 329.81C93.7353 329.368 93.0319 329.163 92.3304 329.24H92.2804Z" fill="#2A98FD"/>
<path d="M76.12 329.64C77.27 330.56 82.12 332.91 83.01 331.76C83.9 330.61 80.61 326.41 79.46 325.49C78.9097 325.047 78.206 324.841 77.5037 324.917C76.8013 324.993 76.1579 325.345 75.715 325.895C75.2721 326.445 75.066 327.149 75.1419 327.851C75.2179 328.554 75.5697 329.197 76.12 329.64Z" fill="#2A98FD"/>
<path d="M92.45 335.93C91.3 335.01 86.45 332.66 85.56 333.81C84.67 334.96 87.96 339.16 89.11 340.08C89.6604 340.523 90.3641 340.729 91.0664 340.653C91.7687 340.577 92.4121 340.225 92.855 339.675C93.2979 339.125 93.5041 338.421 93.4282 337.719C93.3522 337.016 93.0004 336.373 92.45 335.93Z" fill="#2A98FD"/>
<path d="M81.1404 341C82.0604 339.85 84.4104 335 83.2604 334.11C82.1104 333.22 77.9104 336.52 76.9904 337.66C76.7711 337.933 76.6076 338.246 76.5093 338.581C76.4109 338.917 76.3797 339.269 76.4173 339.616C76.4549 339.964 76.5606 340.301 76.7285 340.608C76.8963 340.915 77.1229 341.186 77.3954 341.405C77.6679 341.624 77.9809 341.788 78.3166 341.886C78.6523 341.985 79.004 342.016 79.3518 341.978C79.6995 341.941 80.0365 341.835 80.3434 341.667C80.6503 341.499 80.9211 341.273 81.1404 341Z" fill="#2A98FD"/>
<path d="M87.4303 324.63C86.5103 325.77 84.1603 330.63 85.3103 331.52C86.4603 332.41 90.6603 329.11 91.5803 327.96C91.7989 327.688 91.9618 327.375 92.0595 327.039C92.1572 326.704 92.1879 326.352 92.1499 326.005C92.1118 325.658 92.0057 325.321 91.8376 325.015C91.6695 324.709 91.4428 324.439 91.1703 324.22C90.8978 324.001 90.5849 323.839 90.2495 323.741C89.914 323.643 89.5626 323.612 89.2154 323.65C88.8681 323.689 88.5317 323.795 88.2254 323.963C87.9191 324.131 87.6489 324.358 87.4303 324.63Z" fill="#2A98FD"/>
<g opacity="0.6">
<path d="M80.7404 324.79C80.9004 326.25 82.6504 331.32 84.1104 331.16C85.5704 331 86.1904 325.68 86.0304 324.22C85.993 323.873 85.8875 323.536 85.72 323.23C85.5525 322.923 85.3263 322.652 85.0542 322.433C84.7821 322.214 84.4695 322.051 84.1343 321.952C83.7991 321.854 83.4478 321.823 83.1004 321.86C82.7531 321.897 82.4165 322.003 82.1099 322.17C81.8033 322.338 81.5327 322.564 81.3136 322.836C81.0944 323.108 80.931 323.421 80.8327 323.756C80.7343 324.091 80.703 324.443 80.7404 324.79Z" fill="white"/>
<path d="M87.8302 340.78C87.6702 339.32 85.9202 334.25 84.4602 334.41C83.0002 334.57 82.3802 339.9 82.5402 341.36C82.6171 342.062 82.9695 342.704 83.5199 343.145C84.0704 343.587 84.7737 343.792 85.4752 343.715C86.1767 343.638 86.8189 343.286 87.2605 342.735C87.7022 342.185 87.9071 341.482 87.8302 340.78Z" fill="white"/>
<path d="M76.2903 336.34C77.7503 336.18 82.8203 334.43 82.6603 332.96C82.5003 331.49 77.1803 330.88 75.6603 331.04C74.9873 331.152 74.3827 331.518 73.9706 332.061C73.5586 332.605 73.3703 333.286 73.4446 333.964C73.5188 334.643 73.8498 335.267 74.3697 335.708C74.8896 336.15 75.559 336.376 76.2403 336.34H76.2903Z" fill="white"/>
<path d="M92.2804 329.24C90.8204 329.4 85.7504 331.15 85.9104 332.61C86.0704 334.07 91.3904 334.69 92.9104 334.53C93.6119 334.453 94.2541 334.101 94.6958 333.55C95.1374 333 95.3423 332.296 95.2654 331.595C95.1885 330.893 94.8361 330.251 94.2857 329.81C93.7353 329.368 93.0319 329.163 92.3304 329.24H92.2804Z" fill="white"/>
<path d="M76.1205 329.64C77.2705 330.56 82.1205 332.91 83.0105 331.76C83.9005 330.61 80.6105 326.41 79.4605 325.49C78.9102 325.047 78.2065 324.841 77.5041 324.917C76.8018 324.993 76.1584 325.345 75.7155 325.895C75.2726 326.445 75.0665 327.149 75.1424 327.851C75.2184 328.554 75.5702 329.197 76.1205 329.64Z" fill="white"/>
<path d="M92.45 335.93C91.3 335.01 86.45 332.66 85.56 333.81C84.67 334.96 87.96 339.16 89.11 340.08C89.6604 340.523 90.3641 340.729 91.0664 340.653C91.7687 340.577 92.4121 340.225 92.855 339.675C93.2979 339.125 93.5041 338.421 93.4282 337.719C93.3522 337.016 93.0004 336.373 92.45 335.93Z" fill="white"/>
<path d="M81.1404 341C82.0604 339.85 84.4104 335 83.2604 334.11C82.1104 333.22 77.9104 336.52 76.9904 337.66C76.7711 337.933 76.6076 338.246 76.5093 338.581C76.4109 338.917 76.3797 339.269 76.4173 339.616C76.4549 339.964 76.5606 340.301 76.7285 340.608C76.8963 340.915 77.1229 341.186 77.3954 341.405C77.6679 341.624 77.9809 341.788 78.3166 341.886C78.6523 341.985 79.004 342.016 79.3518 341.978C79.6995 341.941 80.0365 341.835 80.3434 341.667C80.6503 341.499 80.9211 341.273 81.1404 341Z" fill="white"/>
<path d="M87.4303 324.63C86.5103 325.77 84.1603 330.63 85.3103 331.52C86.4603 332.41 90.6603 329.11 91.5803 327.96C91.7989 327.688 91.9618 327.375 92.0595 327.039C92.1572 326.704 92.1879 326.352 92.1499 326.005C92.1118 325.658 92.0057 325.321 91.8376 325.015C91.6695 324.709 91.4428 324.439 91.1703 324.22C90.8978 324.001 90.5849 323.839 90.2495 323.741C89.914 323.643 89.5626 323.612 89.2154 323.65C88.8681 323.689 88.5317 323.795 88.2254 323.963C87.9191 324.131 87.6489 324.358 87.4303 324.63Z" fill="white"/>
</g>
<path d="M81.1502 333.13C81.2191 333.749 81.4698 334.333 81.8708 334.81C82.2717 335.286 82.8049 335.633 83.4029 335.807C84.0009 335.98 84.6369 335.973 85.2306 335.785C85.8243 335.597 86.349 335.238 86.7385 334.752C87.128 334.266 87.3648 333.676 87.4189 333.055C87.4731 332.435 87.3421 331.813 87.0427 331.267C86.7433 330.721 86.2887 330.276 85.7365 329.988C85.1843 329.7 84.5592 329.583 83.9402 329.65C83.5283 329.695 83.1293 329.821 82.766 330.02C82.4027 330.219 82.0824 330.488 81.8232 330.811C81.564 331.134 81.3712 331.506 81.2557 331.904C81.1402 332.302 81.1044 332.718 81.1502 333.13Z" fill="#2A98FD"/>
<path d="M81.4602 374.28C77.8202 374.36 71.5902 370.99 69.1402 367.71C66.6902 364.43 73.6302 366.43 72.9102 363.81C72.1902 361.19 63.6002 363.16 62.0002 359.41C60.4002 355.66 66.6102 356.51 66.3602 354.59C66.1102 352.67 59.6902 353.08 57.6102 349.1C55.5302 345.12 61.1902 347.33 60.3002 345.68C59.4102 344.03 52.3002 337.09 55.3002 335.63C58.3002 334.17 64.9102 341.4 67.1402 342.2C69.3702 343 69.8702 338 72.7702 340.38C75.6702 342.76 73.5402 353.24 76.9502 354.61C79.4802 355.61 78.3902 350.85 81.3202 352.05C86.4002 354.15 82.9402 374.24 81.4602 374.28Z" fill="#2A98FD"/>
<g opacity="0.2">
<path d="M81.4602 374.28C77.8202 374.36 71.5902 370.99 69.1402 367.71C66.6902 364.43 73.6302 366.43 72.9102 363.81C72.1902 361.19 63.6002 363.16 62.0002 359.41C60.4002 355.66 66.6102 356.51 66.3602 354.59C66.1102 352.67 59.6902 353.08 57.6102 349.1C55.5302 345.12 61.1902 347.33 60.3002 345.68C59.4102 344.03 52.3002 337.09 55.3002 335.63C58.3002 334.17 64.9102 341.4 67.1402 342.2C69.3702 343 69.8702 338 72.7702 340.38C75.6702 342.76 73.5402 353.24 76.9502 354.61C79.4802 355.61 78.3902 350.85 81.3202 352.05C86.4002 354.15 82.9402 374.24 81.4602 374.28Z" fill="white"/>
</g>
<path d="M86.6901 369.66C86.7501 369.76 86.2101 370.28 88.0001 370.35C92.4301 370.53 100.25 370.23 103.19 366.21C107.39 360.47 97.7101 360.99 98.6501 357.83C99.5901 354.67 109.99 357.24 112.02 352.72C114.05 348.2 106.48 349.08 106.83 346.72C107.18 344.36 115.12 347.4 117.73 342.61C120.34 337.82 113.42 340.38 114.54 338.39C115.66 336.4 124.46 328.13 120.9 326.28C117.34 324.43 109.07 333.08 106.34 334C103.61 334.92 102.98 326.45 99.4001 329.29C95.8201 332.13 98.1701 345 94.0001 346.54C90.8901 347.72 92.5801 343.14 88.7401 343.32C83.5201 343.55 81.8001 361.48 86.6901 369.66Z" fill="#2A98FD"/>
<g opacity="0.3">
<path d="M86.6901 369.66C86.7501 369.76 86.2101 370.28 88.0001 370.35C92.4301 370.53 100.25 370.23 103.19 366.21C107.39 360.47 97.7101 360.99 98.6501 357.83C99.5901 354.67 109.99 357.24 112.02 352.72C114.05 348.2 106.48 349.08 106.83 346.72C107.18 344.36 115.12 347.4 117.73 342.61C120.34 337.82 113.42 340.38 114.54 338.39C115.66 336.4 124.46 328.13 120.9 326.28C117.34 324.43 109.07 333.08 106.34 334C103.61 334.92 102.98 326.45 99.4001 329.29C95.8201 332.13 98.1701 345 94.0001 346.54C90.8901 347.72 92.5801 343.14 88.7401 343.32C83.5201 343.55 81.8001 361.48 86.6901 369.66Z" fill="white"/>
</g>
<path d="M83.3703 385.32C83.3321 385.315 83.2952 385.303 83.2618 385.283C83.2285 385.264 83.1993 385.238 83.176 385.208C83.1528 385.177 83.1358 385.142 83.1263 385.104C83.1167 385.067 83.1147 385.028 83.1203 384.99C86.7503 355.27 103.87 343.19 104.04 343.07C104.071 343.048 104.107 343.032 104.144 343.024C104.182 343.016 104.22 343.016 104.258 343.024C104.295 343.031 104.331 343.046 104.362 343.068C104.393 343.09 104.42 343.118 104.44 343.15C104.483 343.213 104.5 343.29 104.487 343.364C104.474 343.439 104.432 343.506 104.37 343.55C104.2 343.66 87.2903 355.61 83.6903 385.06C83.6803 385.136 83.6415 385.205 83.582 385.254C83.5225 385.302 83.4468 385.326 83.3703 385.32Z" fill="#263238"/>
<path d="M100.13 347.2C100.071 347.2 100.014 347.18 99.9665 347.144C99.9195 347.108 99.8857 347.057 99.8704 347C99.8579 346.965 99.8527 346.927 99.855 346.89C99.8574 346.852 99.8673 346.815 99.8841 346.782C99.9008 346.748 99.9242 346.718 99.9528 346.694C99.9814 346.67 100.015 346.651 100.05 346.64C102.297 346.096 104.642 346.113 106.88 346.69C106.918 346.697 106.953 346.712 106.985 346.733C107.017 346.754 107.045 346.781 107.066 346.812C107.087 346.844 107.102 346.879 107.11 346.917C107.117 346.954 107.118 346.993 107.11 347.03C107.091 347.103 107.046 347.165 106.983 347.206C106.92 347.247 106.844 347.262 106.77 347.25C104.626 346.71 102.384 346.69 100.23 347.19L100.13 347.2Z" fill="#263238"/>
<path d="M97.0005 350.81C96.928 350.807 96.8593 350.777 96.8089 350.725C96.7585 350.672 96.7304 350.603 96.7305 350.53C96.8307 344.774 98.6293 339.177 101.9 334.44C101.949 334.386 102.016 334.352 102.089 334.345C102.161 334.339 102.234 334.359 102.292 334.403C102.349 334.447 102.389 334.512 102.401 334.583C102.414 334.655 102.4 334.729 102.36 334.79C99.1629 339.421 97.4027 344.893 97.3005 350.52C97.3018 350.558 97.2956 350.595 97.2821 350.63C97.2686 350.665 97.2482 350.697 97.2221 350.725C97.1959 350.752 97.1646 350.773 97.13 350.788C97.0953 350.802 97.0581 350.81 97.0205 350.81H97.0005Z" fill="#263238"/>
<path d="M91.8603 358.42C91.824 358.42 91.7882 358.412 91.7554 358.396C91.7226 358.38 91.6936 358.358 91.6703 358.33C91.616 358.276 91.5854 358.202 91.5854 358.125C91.5854 358.048 91.616 357.974 91.6703 357.92C92.8765 356.874 94.3335 356.159 95.8989 355.845C97.4642 355.532 99.0842 355.63 100.6 356.13C100.672 356.157 100.73 356.211 100.764 356.279C100.797 356.348 100.803 356.427 100.78 356.5C100.768 356.536 100.749 356.569 100.723 356.598C100.698 356.626 100.667 356.649 100.632 356.665C100.597 356.681 100.56 356.689 100.522 356.69C100.484 356.691 100.446 356.684 100.41 356.67C98.9931 356.202 97.4784 356.109 96.0147 356.402C94.551 356.695 93.1884 357.363 92.0603 358.34C92.0346 358.367 92.0035 358.388 91.969 358.402C91.9345 358.416 91.8974 358.422 91.8603 358.42Z" fill="#263238"/>
<path d="M89.2002 363.73C89.1455 363.728 89.0927 363.71 89.0482 363.678C89.0038 363.646 88.9697 363.601 88.9502 363.55C87.661 359.981 87.3333 356.136 88.0002 352.4C88.0062 352.363 88.0196 352.328 88.0396 352.296C88.0596 352.264 88.0857 352.237 88.1165 352.215C88.1473 352.194 88.1821 352.179 88.2188 352.171C88.2555 352.163 88.2934 352.163 88.3302 352.17C88.4056 352.182 88.4731 352.224 88.5181 352.286C88.563 352.348 88.5817 352.425 88.5702 352.5C87.9347 356.127 88.2411 359.856 89.4602 363.33C89.4747 363.365 89.482 363.402 89.4818 363.44C89.4816 363.477 89.4738 363.515 89.4588 363.549C89.4439 363.584 89.4221 363.615 89.3949 363.641C89.3676 363.667 89.3354 363.687 89.3002 363.7C89.2692 363.717 89.2352 363.727 89.2002 363.73Z" fill="#263238"/>
<path d="M83.49 395.93C83.4174 395.93 83.3477 395.902 83.2955 395.852C83.2432 395.801 83.2126 395.733 83.21 395.66L82.84 387.78C81.74 361.61 63.78 343.78 63.6 343.63C63.548 343.574 63.519 343.501 63.519 343.425C63.519 343.349 63.548 343.276 63.6 343.22C63.6261 343.193 63.6572 343.172 63.6915 343.158C63.7259 343.143 63.7628 343.136 63.8 343.136C63.8373 343.136 63.8741 343.143 63.9085 343.158C63.9428 343.172 63.9739 343.193 64 343.22C64.19 343.4 82.3 361.36 83.41 387.77L83.79 395.65C83.7914 395.688 83.7851 395.725 83.7716 395.76C83.7582 395.795 83.7378 395.827 83.7116 395.855C83.6855 395.882 83.6542 395.903 83.6195 395.918C83.5849 395.933 83.5476 395.94 83.51 395.94L83.49 395.93Z" fill="#263238"/>
<path d="M71 353.46C70.9743 353.47 70.9457 353.47 70.92 353.46H70.82C68.468 352.474 65.9401 351.978 63.39 352C63.3481 352.008 63.305 352.006 63.2637 351.996C63.2225 351.985 63.1841 351.965 63.1513 351.938C63.1184 351.911 63.092 351.877 63.0739 351.838C63.0558 351.8 63.0464 351.758 63.0464 351.715C63.0464 351.672 63.0558 351.63 63.0739 351.592C63.092 351.553 63.1184 351.519 63.1513 351.492C63.1841 351.465 63.2225 351.445 63.2637 351.434C63.305 351.424 63.3481 351.422 63.39 351.43C65.9967 351.383 68.5857 351.866 71 352.85H71.1H71.15C71.206 352.878 71.2511 352.923 71.2783 352.979C71.3055 353.035 71.3131 353.099 71.3 353.16C71.303 353.2 71.2973 353.241 71.2833 353.278C71.2692 353.316 71.2472 353.35 71.2188 353.379C71.1903 353.407 71.156 353.429 71.1183 353.443C71.0805 353.457 71.0402 353.463 71 353.46Z" fill="#263238"/>
<path d="M73.5504 356.83C73.5127 356.828 73.4758 356.817 73.4421 356.8C73.4084 356.783 73.3785 356.76 73.3542 356.731C73.3299 356.702 73.3117 356.668 73.3007 356.632C73.2898 356.596 73.2862 356.558 73.2904 356.52C73.6089 351.575 72.4424 346.647 69.9404 342.37C69.9189 342.338 69.9041 342.302 69.8968 342.264C69.8895 342.226 69.8899 342.187 69.8979 342.149C69.9059 342.111 69.9215 342.075 69.9436 342.043C69.9656 342.012 69.9939 341.985 70.0266 341.964C70.0592 341.943 70.0957 341.929 70.1339 341.923C70.172 341.917 70.2111 341.918 70.2487 341.927C70.2863 341.936 70.3218 341.952 70.353 341.975C70.3842 341.998 70.4105 342.027 70.4304 342.06C72.9881 346.449 74.1821 351.5 73.8604 356.57C73.8579 356.608 73.8478 356.645 73.8307 356.678C73.8136 356.712 73.7899 356.742 73.7609 356.766C73.7319 356.791 73.6984 356.809 73.6622 356.82C73.626 356.831 73.588 356.834 73.5504 356.83Z" fill="#263238"/>
<path d="M76.1702 361.31C76.0952 361.304 76.0246 361.272 75.9702 361.22C75.0096 360.35 73.8476 359.733 72.5889 359.424C71.3303 359.115 70.0145 359.124 68.7602 359.45C68.6873 359.469 68.61 359.458 68.5447 359.421C68.4794 359.383 68.4312 359.322 68.4102 359.25C68.3996 359.214 68.3964 359.176 68.4009 359.139C68.4053 359.101 68.4171 359.065 68.4358 359.033C68.4545 359 68.4796 358.971 68.5095 358.949C68.5395 358.926 68.5737 358.909 68.6102 358.9C69.9617 358.533 71.3844 358.517 72.744 358.853C74.1035 359.189 75.3549 359.866 76.3802 360.82C76.4068 360.846 76.4279 360.877 76.4424 360.912C76.4568 360.946 76.4642 360.983 76.4642 361.02C76.4642 361.057 76.4568 361.094 76.4424 361.129C76.4279 361.163 76.4068 361.194 76.3802 361.22C76.3248 361.277 76.2493 361.309 76.1702 361.31Z" fill="#263238"/>
<path d="M79.4903 368.68C79.4508 368.689 79.4098 368.689 79.3703 368.68C79.303 368.644 79.2526 368.583 79.2301 368.51C79.2076 368.437 79.2149 368.358 79.2503 368.29C80.5692 365.318 81.0996 362.057 80.7903 358.82C80.7876 358.782 80.7924 358.744 80.8045 358.707C80.8166 358.671 80.8358 358.638 80.8609 358.609C80.886 358.58 80.9165 358.557 80.9507 358.54C80.985 358.523 81.0222 358.513 81.0603 358.51C81.0979 358.506 81.1359 358.509 81.1721 358.52C81.2083 358.531 81.2419 358.55 81.2708 358.574C81.2998 358.598 81.3235 358.628 81.3406 358.662C81.3577 358.696 81.3678 358.732 81.3703 358.77C81.6945 362.118 81.1396 365.492 79.7603 368.56C79.731 368.603 79.6901 368.637 79.6424 368.659C79.5947 368.68 79.542 368.687 79.4903 368.68Z" fill="#263238"/>
<path d="M99.6802 397.17C99.6802 406.36 95.5502 413.8 83.0402 413.8C71.1102 413.8 66.4102 406.36 66.4102 397.17C66.4057 393.839 67.4059 390.584 69.2802 387.83H96.8002C98.6774 390.583 99.6811 393.838 99.6802 397.17Z" fill="#2A98FD"/>
<path opacity="0.5" d="M99.6802 397.17C99.6802 406.36 95.5502 413.8 83.0402 413.8C71.1102 413.8 66.4102 406.36 66.4102 397.17C66.4057 393.839 67.4059 390.584 69.2802 387.83H96.8002C98.6774 390.583 99.6811 393.838 99.6802 397.17Z" fill="white"/>
<path d="M312.3 123.23C312.3 123.23 302.2 116.5 307.59 135.71L312.67 131.24L313.11 124.75L312.3 123.23Z" fill="#263238"/>
<path d="M361.86 148.29L355.14 140.46L363.72 140.01C363.72 140.01 366.58 144.61 364.83 147.65L361.86 148.29Z" fill="#B55B52"/>
<path d="M353.36 143.74C353.55 143.382 353.84 143.087 354.196 142.893C354.552 142.7 354.957 142.615 355.36 142.65L359.41 143.04L360.05 145.91L353.36 143.74Z" fill="#B55B52"/>
<path d="M353.83 134.31L360.27 134.15L363.72 140.01L355.14 140.46L353.83 134.31Z" fill="#B55B52"/>
<path d="M339.28 162C343.8 162.84 348.47 163.66 353.06 164.38C357.65 165.1 362.28 165.67 366.82 166.01L368.51 166.11H368.56H368.38L368.14 166.17C368.03 166.199 367.923 166.24 367.82 166.29C367.406 166.486 367.059 166.799 366.82 167.19C366.51 167.79 366.7 167.68 366.71 167.42C366.751 167.044 366.751 166.666 366.71 166.29C366.461 164.161 366.02 162.059 365.39 160.01C364.78 157.81 364.09 155.59 363.32 153.38C362.55 151.17 361.78 148.93 361 146.74L364.83 144.84C367.43 148.991 369.703 153.337 371.63 157.84C372.693 160.239 373.491 162.747 374.01 165.32C374.162 166.118 374.236 166.928 374.23 167.74C374.257 169.031 373.91 170.302 373.23 171.4C372.653 172.285 371.829 172.98 370.86 173.4C370.622 173.5 370.378 173.587 370.13 173.66L369.44 173.8C369.21 173.8 369.03 173.8 368.82 173.85H366.55C361.653 173.783 356.765 173.426 351.91 172.78C347.07 172.19 342.35 171.42 337.54 170.39L339.28 162Z" fill="#B55B52"/>
<path d="M342.54 402.84L334.1 403.22L331.58 383.76L340.01 383.37L342.54 402.84Z" fill="#B55B52"/>
<path d="M333.24 402.28L342.71 401.85C342.873 401.837 343.035 401.886 343.164 401.985C343.293 402.085 343.381 402.229 343.41 402.39L344.84 409.84C344.87 410.029 344.859 410.222 344.81 410.406C344.76 410.591 344.672 410.763 344.551 410.911C344.43 411.059 344.279 411.18 344.109 411.266C343.938 411.352 343.751 411.401 343.56 411.41C340.25 411.5 338.65 411.41 334.48 411.57C331.91 411.69 324.56 412.3 321.02 412.46C317.48 412.62 317.13 409.13 318.59 408.74C325.13 407.02 329.71 404.84 331.85 402.87C332.23 402.516 332.722 402.307 333.24 402.28Z" fill="#2A98FD"/>
<path opacity="0.2" d="M331.58 383.76L332.88 393.8L341.32 393.41L340.02 383.38L331.58 383.76Z" fill="black"/>
<path d="M310.2 215.51C310.2 215.51 311.28 280.91 314.88 306.42C318.62 333 331 391.93 331 391.93L342.41 391.41C342.41 391.41 338.1 332.21 336 306C333.7 277.38 335.15 212.57 335.15 212.57L310.2 215.51Z" fill="#263238"/>
<path d="M343.4 391.77L330.01 392.38L328.83 388.16L343.8 386.95L343.4 391.77Z" fill="#263238"/>
<path d="M330.14 403.91C329.418 404.003 328.686 403.851 328.06 403.48C327.915 403.36 327.802 403.206 327.732 403.031C327.662 402.856 327.637 402.667 327.66 402.48C327.673 402.378 327.711 402.281 327.771 402.198C327.83 402.114 327.909 402.046 328 402C329 401.38 332.45 402.95 332.84 403.13C332.879 403.145 332.913 403.173 332.934 403.209C332.956 403.245 332.965 403.288 332.96 403.33C332.955 403.37 332.938 403.408 332.911 403.438C332.885 403.468 332.849 403.49 332.81 403.5C331.935 403.718 331.041 403.855 330.14 403.91ZM328.55 402.23C328.421 402.229 328.294 402.26 328.18 402.32C328.142 402.342 328.11 402.374 328.089 402.413C328.068 402.452 328.058 402.496 328.06 402.54C328.047 402.658 328.064 402.778 328.11 402.888C328.155 402.998 328.227 403.095 328.32 403.17C328.85 403.61 330.24 403.62 332.1 403.23C330.984 402.692 329.783 402.353 328.55 402.23Z" fill="#2A98FD"/>
<path d="M332.74 403.49H332.66C331.66 403.08 329.56 401.36 329.66 400.39C329.66 400.17 329.83 399.88 330.38 399.79C330.577 399.758 330.779 399.769 330.972 399.82C331.165 399.872 331.345 399.964 331.5 400.09C332.61 400.92 332.91 403.19 332.92 403.28C332.926 403.314 332.921 403.35 332.907 403.382C332.893 403.414 332.87 403.441 332.84 403.46C332.81 403.478 332.775 403.488 332.74 403.49ZM330.57 400.16H330.45C330.09 400.21 330.07 400.36 330.06 400.41C330 400.99 331.41 402.36 332.47 402.93C332.349 401.974 331.929 401.082 331.27 400.38C331.073 400.22 330.823 400.142 330.57 400.16Z" fill="#2A98FD"/>
<path opacity="0.4" d="M331.62 217.14L326.87 224.2C326.87 224.2 320.92 231.11 322.87 251.6C324.6 269.42 330.87 291.69 335.1 289.26C334.38 266.52 334.7 236.74 334.94 221.85L331.62 217.14Z" fill="black"/>
<path d="M301.08 396.01L292.67 395.27L291.66 375.55L300.08 376.29L301.08 396.01Z" fill="#B55B52"/>
<path d="M291.89 393.56L301.37 392.98C301.532 392.965 301.694 393.011 301.823 393.109C301.953 393.207 302.041 393.35 302.07 393.51L303.62 400.94C303.651 401.128 303.643 401.32 303.595 401.505C303.547 401.689 303.461 401.861 303.342 402.01C303.223 402.159 303.074 402.282 302.905 402.369C302.736 402.457 302.55 402.508 302.36 402.52C299.05 402.67 297.45 402.57 293.28 402.83C290.72 402.99 286.99 403.48 283.45 403.7C279.91 403.92 279.51 400.43 280.96 400.02C287.48 398.2 288.41 396.17 290.52 394.16C290.892 393.805 291.377 393.593 291.89 393.56Z" fill="#2A98FD"/>
<path opacity="0.2" d="M300.08 376.29L291.66 375.56L292.18 385.72L300.6 386.46L300.08 376.29Z" fill="black"/>
<path d="M327 230.15C321.62 249.79 299.57 284.52 292.37 305.83C283.83 331.14 290.37 383.6 290.37 383.6L301.85 384.6C301.85 384.6 306.85 333.96 309.98 319.7C316.65 289.29 354.35 257.89 352.68 236.97C352.03 228.82 343.18 209.75 343.18 209.75L322.51 210.7C322.51 210.7 328.61 224.19 327 230.15Z" fill="#263238"/>
<path d="M303.07 385.32L288.83 384.08L287.7 379.47L304.52 380.17L303.07 385.32Z" fill="#263238"/>
<path d="M287.55 394.93L287.47 394.87C287.325 394.75 287.213 394.595 287.143 394.421C287.073 394.246 287.048 394.057 287.07 393.87C287.074 393.749 287.109 393.631 287.172 393.527C287.235 393.424 287.324 393.339 287.43 393.28C288.43 392.78 291.05 394.28 291.35 394.45C291.384 394.468 291.412 394.496 291.43 394.53C291.447 394.563 291.455 394.602 291.45 394.64C291.445 394.679 291.429 394.715 291.404 394.745C291.379 394.775 291.347 394.797 291.31 394.81C290.27 395.09 288.42 395.51 287.55 394.93ZM290.72 394.52C289.64 393.95 288.12 393.33 287.62 393.6C287.572 393.624 287.532 393.661 287.506 393.707C287.479 393.754 287.467 393.807 287.47 393.86C287.447 393.988 287.458 394.12 287.502 394.243C287.546 394.366 287.621 394.475 287.72 394.56C288.17 394.92 289.27 394.9 290.72 394.52Z" fill="#2A98FD"/>
<path d="M290.89 394.6C290.02 394.02 288.7 392.53 288.82 391.67C288.838 391.512 288.912 391.366 289.027 391.256C289.142 391.146 289.292 391.081 289.45 391.07C289.6 391.037 289.756 391.038 289.905 391.075C290.054 391.111 290.193 391.181 290.31 391.28C291.31 392.04 291.44 394.46 291.45 394.57C291.451 394.605 291.444 394.64 291.428 394.671C291.412 394.703 291.389 394.73 291.36 394.75C291.329 394.765 291.295 394.773 291.26 394.773C291.226 394.773 291.191 394.765 291.16 394.75C291.067 394.707 290.976 394.657 290.89 394.6ZM290.02 391.6C289.949 391.552 289.869 391.518 289.785 391.501C289.701 391.484 289.614 391.483 289.53 391.5C289.27 391.55 289.23 391.66 289.21 391.76C289.13 392.35 290.21 393.65 291.01 394.24C290.973 393.297 290.644 392.389 290.07 391.64L290.02 391.6Z" fill="#2A98FD"/>
<path d="M304.71 174.05C302.55 174.87 300.53 175.46 298.39 176.05C296.25 176.619 294.08 177.073 291.89 177.41C289.578 177.801 287.234 177.968 284.89 177.91C283.599 177.876 282.314 177.726 281.05 177.46C279.548 177.142 278.115 176.556 276.82 175.73C276.118 175.261 275.479 174.703 274.92 174.07C274.454 173.544 274.029 172.982 273.65 172.39C272.993 171.358 272.415 170.279 271.92 169.16C271.025 167.121 270.27 165.022 269.66 162.88C268.482 158.754 267.636 154.541 267.13 150.28L271.3 149.33C272.71 153.14 274.2 157.01 275.81 160.66C276.586 162.44 277.454 164.179 278.41 165.87C278.835 166.619 279.317 167.334 279.85 168.01C280.055 168.279 280.283 168.53 280.53 168.76C280.668 168.902 280.831 169.017 281.01 169.1C282.272 169.564 283.62 169.748 284.96 169.64C286.794 169.561 288.619 169.347 290.42 169C292.3 168.65 294.19 168.16 296.09 167.64C297.99 167.12 299.93 166.52 301.69 165.94L304.71 174.05Z" fill="#B55B52"/>
<path d="M270.91 152.46L276.91 144.05L268.33 144.38C268.33 144.38 265.9 149.24 267.93 152.1L270.91 152.46Z" fill="#B55B52"/>
<path d="M279 147.15C278.783 146.802 278.464 146.528 278.087 146.367C277.709 146.206 277.292 146.165 276.89 146.25L272.89 147.01L272.52 149.93L279 147.15Z" fill="#B55B52"/>
<path d="M277.62 137.81L271.2 138.24L268.3 144.38L276.88 144.05L277.62 137.81Z" fill="#B55B52"/>
<path d="M301.12 164.32C301.12 164.32 296.33 167.25 310.2 215.51L344.26 211.51C342.04 197.71 342.11 191.35 345.35 162.11C345.35 162.11 336.92 159.22 329.55 159.74C324.356 159.982 319.186 160.596 314.08 161.58C307.51 162.93 301.12 164.32 301.12 164.32Z" fill="#2A98FD"/>
<path opacity="0.5" d="M300.78 164.32C300.78 164.32 296 167.25 309.86 215.51L343.93 211.51C341.71 197.71 341.77 191.35 345.01 162.11C345.01 162.11 336.59 159.22 329.22 159.74C324.026 159.98 318.856 160.595 313.75 161.58C307 163 307.32 162.9 300.78 164.32Z" fill="white"/>
<path d="M325.94 142.45C325.56 147.55 325.67 156.78 329.55 159.69C329.55 159.69 328.79 164.9 319.55 166C309.39 167.21 314.09 161.53 314.09 161.53C319.49 159.53 318.85 155.44 317.42 151.69L325.94 142.45Z" fill="#B55B52"/>
<path opacity="0.2" d="M322.47 146.22L317.42 151.69C317.767 152.561 318.035 153.461 318.22 154.38C320.31 153.82 322.94 151.14 322.9 148.9C322.917 147.988 322.772 147.081 322.47 146.22Z" fill="black"/>
<path d="M331.27 133.76C329.73 142 329.27 145.52 324.53 149.27C317.43 154.9 307.65 151.21 306.69 142.67C305.83 134.99 308.49 122.81 317.03 120.51C318.91 119.993 320.89 119.966 322.783 120.43C324.676 120.895 326.419 121.836 327.846 123.163C329.273 124.491 330.336 126.162 330.936 128.016C331.535 129.871 331.65 131.848 331.27 133.76Z" fill="#B55B52"/>
<path d="M311.07 122.25C308.5 126.19 335.85 139.17 332.88 130.31C329.91 121.45 317.77 112 311.07 122.25Z" fill="#263238"/>
<path d="M325.08 130.8C324.62 134.8 330.08 139.25 330.08 139.25C330.08 139.25 336.58 133.99 332.23 131.53C327.88 129.07 325.08 130.8 325.08 130.8Z" fill="#263238"/>
<path d="M317.21 134.35C317.13 135.03 316.7 135.53 316.26 135.48C315.82 135.43 315.53 134.83 315.61 134.16C315.69 133.49 316.12 132.98 316.56 133.03C317 133.08 317.29 133.68 317.21 134.35Z" fill="#263238"/>
<path d="M309.57 133.41C309.48 134.08 309.06 134.59 308.57 134.53C308.08 134.47 307.84 133.89 307.93 133.21C308.02 132.53 308.44 132.03 308.88 132.08C309.32 132.13 309.65 132.73 309.57 133.41Z" fill="#263238"/>
<path d="M309.11 132.15L307.54 131.48C307.54 131.48 308.22 132.85 309.11 132.15Z" fill="#263238"/>
<path d="M312.31 134.89C311.52 136.353 310.53 137.699 309.37 138.89C309.684 139.178 310.057 139.394 310.463 139.523C310.868 139.653 311.297 139.693 311.72 139.64L312.31 134.89Z" fill="#A02724"/>
<path d="M332.57 141.65C331.818 143.082 330.532 144.161 328.99 144.65C326.93 145.28 325.85 143.45 326.38 141.48C326.85 139.71 328.5 137.26 330.58 137.48C331.037 137.536 331.472 137.707 331.846 137.976C332.22 138.245 332.52 138.604 332.718 139.019C332.917 139.435 333.007 139.894 332.981 140.354C332.955 140.813 332.814 141.259 332.57 141.65Z" fill="#B55B52"/>
<path d="M320.47 133.18C320.385 133.181 320.302 133.155 320.232 133.107C320.162 133.059 320.109 132.99 320.08 132.91C319.46 131.17 317.16 130.52 317.14 130.51C317.087 130.499 317.036 130.477 316.991 130.446C316.945 130.415 316.907 130.375 316.879 130.328C316.85 130.281 316.831 130.229 316.823 130.175C316.815 130.121 316.819 130.065 316.833 130.013C316.847 129.96 316.873 129.91 316.907 129.867C316.941 129.825 316.984 129.789 317.032 129.764C317.081 129.738 317.134 129.723 317.189 129.719C317.244 129.715 317.298 129.722 317.35 129.74C317.46 129.74 320.07 130.51 320.83 132.64C320.849 132.689 320.858 132.742 320.856 132.794C320.854 132.847 320.842 132.899 320.819 132.946C320.797 132.994 320.765 133.037 320.726 133.072C320.686 133.107 320.64 133.133 320.59 133.15L320.47 133.18Z" fill="#263238"/>
<path d="M307.71 129.59C307.624 129.591 307.541 129.564 307.471 129.514C307.402 129.463 307.35 129.392 307.325 129.31C307.299 129.228 307.3 129.14 307.328 129.059C307.356 128.978 307.409 128.908 307.48 128.86C308.007 128.504 308.613 128.28 309.245 128.209C309.877 128.137 310.517 128.22 311.11 128.45C311.158 128.472 311.201 128.502 311.237 128.541C311.273 128.579 311.302 128.624 311.32 128.673C311.339 128.723 311.347 128.775 311.346 128.828C311.344 128.88 311.332 128.932 311.31 128.98C311.289 129.028 311.258 129.071 311.219 129.107C311.181 129.143 311.135 129.17 311.086 129.188C311.036 129.206 310.984 129.213 310.931 129.21C310.879 129.207 310.827 129.193 310.78 129.17C310.307 129 309.801 128.943 309.302 129.006C308.803 129.069 308.326 129.248 307.91 129.53C307.851 129.569 307.781 129.59 307.71 129.59Z" fill="#263238"/>
<path d="M316.75 133.09L315.18 132.42C315.18 132.42 315.86 133.79 316.75 133.09Z" fill="#263238"/>
<path d="M311.82 142.05C311.82 142.05 314.17 141.31 320.92 140.78C320.29 142.87 318.92 144.64 315.49 144.88C315.061 144.953 314.621 144.937 314.199 144.832C313.776 144.727 313.38 144.536 313.035 144.27C312.69 144.004 312.404 143.669 312.195 143.287C311.986 142.905 311.858 142.484 311.82 142.05Z" fill="#263238"/>
<path d="M317 143.16C315.67 143.19 314.382 143.638 313.32 144.44C313.992 144.806 314.759 144.96 315.52 144.88C316.852 144.857 318.142 144.408 319.2 143.6C318.533 143.223 317.762 143.069 317 143.16Z" fill="#A02724"/>
<path d="M312.12 142C312.204 142.243 312.354 142.459 312.554 142.621C312.753 142.784 312.995 142.887 313.25 142.92C315.252 142.757 317.236 142.422 319.18 141.92C319.495 141.871 319.793 141.742 320.045 141.546C320.297 141.35 320.495 141.093 320.62 140.8C317.761 140.985 314.919 141.386 312.12 142Z" fill="white"/>
<path d="M333.08 131.25C324.56 132.13 323.72 128.86 323.72 128.86C326.156 129.798 328.765 130.2 331.37 130.04C324.432 128.473 318.1 124.918 313.15 119.81C312.35 120.526 311.651 121.347 311.07 122.25C308.6 126 333.73 138.15 333.08 131.25Z" fill="#2A98FD"/>
<path d="M311.51 123C311.51 123 306.34 115.7 302.86 124.37C303.951 123.222 305.389 122.466 306.953 122.219C308.517 121.971 310.119 122.245 311.51 123Z" fill="#2A98FD"/>
<path d="M189.36 159.44C192.68 162.86 196.18 166.33 199.69 169.58C201.45 171.22 203.27 172.76 205.08 174.25C206.79 175.678 208.612 176.965 210.53 178.1C211.236 178.538 212 178.875 212.8 179.1C213.9 179.33 215.05 179.54 216.23 179.74C218.58 180.13 221 180.45 223.43 180.74C228.29 181.37 233.22 182 238.12 182.74L238.01 187.19C233.01 187.61 228.01 187.79 222.95 187.76C220.43 187.76 217.95 187.67 215.33 187.49C214.04 187.4 212.73 187.27 211.33 187.09C209.696 186.806 208.115 186.277 206.64 185.52C204.201 184.272 201.879 182.81 199.7 181.15C197.59 179.59 195.62 177.93 193.7 176.25C189.843 172.895 186.171 169.333 182.7 165.58L189.36 159.44Z" fill="#FFB573"/>
<path d="M205.17 171.21L197.72 182.1C197.72 182.1 195.17 179.62 191.21 176.23C186.73 172.39 181.64 168.32 180.31 164.42C177.95 157.49 182.09 154.11 192.52 158.61C197 160.55 205.17 171.21 205.17 171.21Z" fill="#2A98FD"/>
<path d="M234.26 183.31L239.89 177.56L243.36 184.47C243.36 184.47 237.21 189.01 235.44 187.41L234.26 183.31Z" fill="#FFB573"/>
<path d="M247.07 177.94L248.24 183.36L243.36 184.47L239.89 177.56L247.07 177.94Z" fill="#FFB573"/>
<path opacity="0.2" d="M189.11 166.47L184.86 165.22L181.81 167.22C183.99 170.22 187.81 173.33 191.21 176.22C193.42 178.11 195.21 179.71 196.32 180.77C193.44 169.5 189.11 166.47 189.11 166.47Z" fill="black"/>
<path d="M211.7 404.46L218.69 402.19L214.34 385.7L207.35 387.97L211.7 404.46Z" fill="#FFB573"/>
<path d="M218.79 401.26L210.94 403.81C210.874 403.827 210.812 403.858 210.757 403.9C210.703 403.941 210.658 403.994 210.624 404.054C210.59 404.113 210.569 404.179 210.562 404.247C210.554 404.315 210.56 404.384 210.58 404.45L212.21 410.79C212.316 411.117 212.546 411.39 212.851 411.549C213.156 411.708 213.511 411.741 213.84 411.64C216.56 410.7 217.84 410.12 221.27 409C223.39 408.31 232.5 405.6 235.43 404.64C238.36 403.68 237.34 400.82 236.01 400.96C230.01 401.59 222.61 402.21 220.14 401.3C219.708 401.131 219.231 401.116 218.79 401.26Z" fill="#263238"/>
<path opacity="0.2" d="M207.35 387.98L214.35 385.71L216.58 394.21L209.59 396.48L207.35 387.98Z" fill="black"/>
<path d="M190.31 221.1C190.31 221.1 200.24 280.93 203.18 301.8C206.41 324.65 219.06 391.49 219.06 391.49L206.06 395.07C206.06 395.07 187.53 330.3 182.28 308.07C176.58 283.95 164.03 221.07 164.03 221.07L190.31 221.1Z" fill="#263238"/>
<path opacity="0.4" d="M175.38 239.64C180.46 252.32 180.03 279.87 177.97 288.7C174.86 274.2 171.29 256.85 168.54 243.36C169.52 239.9 172.3 231.92 175.38 239.64Z" fill="black"/>
<path d="M221.67 401.67C221.034 401.857 220.381 401.978 219.72 402.03C219.688 402.032 219.655 402.024 219.627 402.008C219.599 401.992 219.575 401.969 219.56 401.94C219.543 401.911 219.535 401.878 219.535 401.845C219.535 401.812 219.543 401.779 219.56 401.75C219.73 401.53 221.27 399.53 222.24 399.59C222.35 399.597 222.456 399.632 222.549 399.691C222.642 399.751 222.718 399.833 222.77 399.93C222.867 400.067 222.925 400.227 222.939 400.394C222.954 400.561 222.923 400.729 222.85 400.88C222.567 401.279 222.147 401.56 221.67 401.67ZM220.09 401.67C221.42 401.51 222.33 401.17 222.55 400.74C222.596 400.64 222.614 400.529 222.602 400.42C222.59 400.311 222.548 400.207 222.48 400.12C222.456 400.073 222.421 400.032 222.377 400.002C222.333 399.973 222.283 399.955 222.23 399.95C221.71 399.9 220.74 400.87 220.09 401.65V401.67Z" fill="#2A98FD"/>
<path d="M219.76 402H219.68C219.65 401.996 219.622 401.983 219.599 401.964C219.576 401.944 219.559 401.919 219.55 401.89C219.55 401.81 218.71 399.89 219.19 398.94C219.253 398.823 219.341 398.722 219.449 398.644C219.556 398.566 219.68 398.513 219.81 398.49C219.951 398.448 220.101 398.455 220.237 398.509C220.374 398.564 220.487 398.663 220.56 398.79C220.97 399.5 220.4 401.3 219.84 401.94L219.76 402ZM219.76 398.86C219.694 398.878 219.632 398.909 219.579 398.952C219.525 398.995 219.481 399.049 219.45 399.11C219.282 399.908 219.374 400.738 219.71 401.48C220.2 400.741 220.383 399.841 220.22 398.97C220.22 398.88 220.08 398.79 219.83 398.84L219.76 398.86Z" fill="#2A98FD"/>
<path d="M156.66 407.67H164.01L164.97 390.65H157.62L156.66 407.67Z" fill="#FFB573"/>
<path d="M164.4 406.82H156.14C156.071 406.817 156.003 406.828 155.939 406.852C155.875 406.875 155.816 406.912 155.766 406.958C155.716 407.004 155.675 407.06 155.647 407.122C155.618 407.185 155.602 407.252 155.6 407.32L155.2 413.86C155.2 414.201 155.334 414.529 155.573 414.772C155.813 415.015 156.138 415.155 156.48 415.16C159.36 415.11 160.73 414.94 164.36 414.94C166.6 414.94 176.09 415.18 179.18 415.18C182.27 415.18 182.18 412.13 180.87 411.85C175.01 410.61 167.74 408.85 165.66 407.27C165.301 406.985 164.858 406.826 164.4 406.82Z" fill="#263238"/>
<path opacity="0.2" d="M157.62 390.66H164.97L164.47 399.43H157.12L157.62 390.66Z" fill="black"/>
<path d="M176 220.73C176 220.73 176.7 276.89 175.51 297.93C174.2 320.98 167.67 397.31 167.67 397.31H154.16C154.16 397.31 154.57 322.84 153.76 300.02C153.29 286.93 149.64 265.52 148.93 248.24C148.596 238.685 149.469 229.126 151.53 219.79L176 220.73Z" fill="#263238"/>
<path d="M167 408.1C166.343 408.082 165.689 407.995 165.05 407.84C165.017 407.832 164.987 407.815 164.963 407.79C164.94 407.765 164.925 407.734 164.92 407.7C164.911 407.668 164.913 407.634 164.926 407.603C164.939 407.572 164.961 407.546 164.99 407.53C165.22 407.37 167.3 405.95 168.2 406.3C168.301 406.341 168.391 406.406 168.46 406.49C168.53 406.573 168.578 406.673 168.6 406.78C168.644 406.941 168.647 407.11 168.608 407.273C168.57 407.435 168.491 407.586 168.38 407.71C167.984 408.006 167.492 408.145 167 408.1ZM165.52 407.59C166.83 407.85 167.8 407.81 168.14 407.47C168.212 407.388 168.261 407.288 168.282 407.181C168.303 407.074 168.295 406.963 168.26 406.86C168.256 406.805 168.236 406.753 168.202 406.71C168.168 406.668 168.122 406.636 168.07 406.62C167.59 406.43 166.37 407.05 165.52 407.59Z" fill="#2A98FD"/>
<path d="M165.08 407.84C165.057 407.848 165.032 407.848 165.01 407.84C164.982 407.83 164.958 407.813 164.941 407.79C164.923 407.767 164.912 407.739 164.91 407.71C164.91 407.62 164.74 405.5 165.48 404.79C165.576 404.698 165.691 404.629 165.818 404.587C165.944 404.545 166.078 404.533 166.21 404.55C166.357 404.554 166.498 404.607 166.611 404.702C166.723 404.796 166.801 404.926 166.83 405.07C167 405.87 165.9 407.4 165.17 407.84C165.141 407.849 165.109 407.849 165.08 407.84ZM166.08 404.84C166.011 404.839 165.943 404.851 165.88 404.877C165.816 404.903 165.758 404.941 165.71 404.99C165.306 405.699 165.138 406.519 165.23 407.33C165.87 406.79 166.6 405.62 166.48 405.1C166.48 405 166.41 404.88 166.16 404.85L166.08 404.84Z" fill="#2A98FD"/>
<path d="M190.76 223.21H150.19C149.91 219.59 150.74 207.8 150.12 192.79C149.747 181.668 148.408 170.6 146.12 159.71C145.93 158.89 145.75 158.08 145.56 157.26C145.56 157.26 147.61 156.84 150.56 156.41C153 156.05 156.07 155.68 159.08 155.54C164.822 155.215 170.578 155.215 176.32 155.54C178.97 155.79 181.56 156.23 183.63 156.63C186.27 157.16 187.82 157.63 187.82 157.63C187.82 157.63 197.79 180.56 190.76 223.21Z" fill="#2A98FD"/>
<path d="M169.74 161.06C160.03 160.79 158.58 156.06 158.52 155.84L158.46 155.63L160.11 155.53C165.676 155.22 171.254 155.22 176.82 155.53L177.76 155.63C178.165 155.97 178.477 156.406 178.668 156.9C178.859 157.393 178.921 157.926 178.85 158.45C178.42 160.1 176.15 160.66 174.16 160.89L169.74 161.06Z" fill="white"/>
<path d="M170.05 160.07C160.7 159.91 159.47 155.57 159.47 155.57C163.11 151.98 161.71 142.18 160.47 136.8L164.94 140.5L171.03 145.56C170.848 146.371 170.717 147.192 170.64 148.02C170.31 151.32 171.17 154.32 176.02 155.47C176.02 155.47 181.79 159.29 173.23 159.98L170.05 160.07Z" fill="#FFB573"/>
<path opacity="0.2" d="M170.64 148C170.709 147.295 170.816 146.594 170.96 145.9L163.13 139.4C163.052 140.461 163.089 141.527 163.24 142.58C163.66 145.64 167.53 148.82 170.59 149.58C170.573 149.053 170.589 148.525 170.64 148Z" fill="black"/>
<path d="M158.31 130.2C159.94 137.7 160.52 142.2 164.95 145.59C166.38 146.712 168.09 147.423 169.894 147.647C171.698 147.87 173.529 147.598 175.19 146.858C176.851 146.119 178.279 144.94 179.32 143.45C180.362 141.96 180.977 140.214 181.1 138.4C181.68 131.4 178.92 120.32 171.02 118.19C169.322 117.684 167.521 117.634 165.797 118.045C164.074 118.455 162.489 119.312 161.201 120.529C159.913 121.746 158.968 123.28 158.461 124.977C157.953 126.675 157.901 128.476 158.31 130.2Z" fill="#FFB573"/>
<path d="M170.15 130.94C170.25 131.56 170.65 132.02 171.05 131.94C171.45 131.86 171.71 131.35 171.61 130.74C171.51 130.13 171.12 129.66 170.71 129.74C170.3 129.82 170.06 130.32 170.15 130.94Z" fill="#263238"/>
<path d="M177.14 130.11C177.23 130.73 177.64 131.19 178.04 131.11C178.44 131.03 178.7 130.52 178.6 129.91C178.5 129.3 178.1 128.83 177.7 128.91C177.3 128.99 177 129.49 177.14 130.11Z" fill="#263238"/>
<path d="M175 130.68C176.034 132.476 177.302 134.127 178.77 135.59C178.388 135.943 177.932 136.207 177.436 136.364C176.94 136.522 176.416 136.568 175.9 136.5L175 130.68Z" fill="#ED893E"/>
<path d="M167.64 129C167.584 129.015 167.525 129.015 167.47 129C167.386 128.952 167.323 128.873 167.295 128.78C167.267 128.687 167.276 128.587 167.32 128.5C167.589 127.99 167.98 127.554 168.458 127.231C168.936 126.908 169.486 126.709 170.06 126.65C170.107 126.646 170.155 126.652 170.201 126.667C170.246 126.682 170.288 126.706 170.323 126.738C170.359 126.77 170.388 126.808 170.408 126.852C170.428 126.895 170.439 126.942 170.44 126.99C170.444 127.039 170.438 127.088 170.422 127.135C170.407 127.181 170.382 127.224 170.349 127.261C170.316 127.297 170.276 127.326 170.232 127.347C170.187 127.368 170.139 127.379 170.09 127.38C169.642 127.433 169.214 127.595 168.843 127.851C168.471 128.107 168.168 128.45 167.96 128.85C167.924 128.9 167.875 128.941 167.819 128.967C167.763 128.993 167.701 129.005 167.64 129Z" fill="#263238"/>
<path d="M179.77 127.36C179.711 127.358 179.653 127.343 179.601 127.315C179.549 127.288 179.504 127.248 179.47 127.2C179.216 126.807 178.876 126.477 178.476 126.234C178.076 125.992 177.626 125.843 177.16 125.8C177.074 125.786 176.995 125.741 176.938 125.674C176.882 125.607 176.851 125.523 176.851 125.435C176.851 125.347 176.882 125.263 176.938 125.196C176.995 125.129 177.074 125.084 177.16 125.07C177.746 125.11 178.314 125.286 178.819 125.584C179.324 125.883 179.753 126.296 180.07 126.79C180.125 126.87 180.146 126.968 180.129 127.063C180.112 127.159 180.059 127.244 179.98 127.3C179.916 127.338 179.844 127.359 179.77 127.36Z" fill="#263238"/>
<path d="M147.5 166C143.057 163.501 138.763 160.746 134.64 157.75C132.56 156.25 130.5 154.69 128.51 152.94C127.51 152.06 126.51 151.16 125.51 150.15C124.446 149.064 123.489 147.878 122.65 146.61C122.42 146.27 122.19 145.82 121.97 145.43C121.75 145.04 121.56 144.53 121.43 144.14C121.163 143.39 120.952 142.621 120.8 141.84C120.539 140.462 120.359 139.069 120.26 137.67C120.115 135.069 120.115 132.461 120.26 129.86C120.514 124.793 121.102 119.749 122.02 114.76L126.46 115.16C126.59 120.04 126.75 124.98 127.09 129.78C127.25 132.18 127.51 134.56 127.86 136.78C128.21 139 128.79 141.27 129.49 142.01C130.095 142.763 130.764 143.462 131.49 144.1C132.28 144.83 133.16 145.56 134.06 146.27C135.88 147.69 137.81 149.08 139.79 150.43C143.79 153.09 147.93 155.69 152.01 158.15L147.5 166Z" fill="#FFB573"/>
<path d="M152.48 154.48C141.87 149.72 138.77 145.92 138.77 145.92L131.56 158.46C131.56 158.46 142.56 170.52 151.31 169.97C156.34 169.65 162.78 159.09 152.48 154.48Z" fill="#2A98FD"/>
<path d="M122 115.92L121.78 108.49L129.63 113.42C129.63 113.42 128.63 120.02 125.27 119.23L122 115.92Z" fill="#FFB573"/>
<path d="M126.79 103.7L133.07 108.07L129.65 113.42L121.8 108.49L126.79 103.7Z" fill="#FFB573"/>
<path opacity="0.4" d="M168.24 390L154.19 391.4C154.19 395.1 154.19 397.27 154.19 397.27H167.66C167.66 397.27 167.86 394.6 168.24 390Z" fill="black"/>
<path d="M153.62 397.31H168.17L168.97 392.2L152.92 393L153.62 397.31Z" fill="#263238"/>
<path opacity="0.4" d="M204.2 388.45C205.38 392.59 206.08 395.07 206.08 395.07L219.08 391.49C219.08 391.49 218.52 388.54 217.61 383.7L204.2 388.45Z" fill="black"/>
<path d="M205.76 395.33L219.65 391.5L219.38 385.84L203.74 391.25L205.76 395.33Z" fill="#263238"/>
<path d="M155.25 138.5C155.25 138.5 161.18 145.72 161.53 142.9C161.88 140.08 160.47 140.9 161.31 135.9C161.31 135.9 166.06 136.02 162.81 128.58C159.56 121.14 156.75 124.02 156.75 124.02L154.25 130.33L153.94 133.02V136.08L155.25 138.5Z" fill="#263238"/>
<path opacity="0.5" d="M155.25 138.5C155.25 138.5 161.18 145.72 161.53 142.9C161.88 140.08 160.47 140.9 161.31 135.9C161.31 135.9 166.06 136.02 162.81 128.58C159.56 121.14 156.75 124.02 156.75 124.02L154.25 130.33L153.94 133.02V136.08L155.25 138.5Z" fill="white"/>
<path d="M173.63 124.16L173.19 119.71L175.53 123.54C177.378 122.976 179.262 122.538 181.17 122.23C181.17 122.23 175 112 169.31 111.88C161.9 111.74 159.62 116.54 159.62 116.54C159.62 116.54 154.31 114.79 150.31 124.63C146.31 134.47 156 139.54 156 139.54C156 139.54 158 133.65 165 128.61L163.3 124.02L166.48 127.6C168.726 126.187 171.124 125.033 173.63 124.16Z" fill="#263238"/>
<path d="M156.58 138C157.794 139.463 159.475 140.462 161.34 140.83C163.71 141.23 164.24 139.04 163.04 136.92C161.96 135.02 159.42 132.51 157.31 133.07C155.2 133.63 155.05 136.18 156.58 138Z" fill="#FFB573"/>
<path d="M178 138.16C178 138.16 175.62 137.53 168.86 137.31C169.58 139.37 171 141.07 174.47 141.16C174.902 141.213 175.34 141.176 175.757 141.051C176.174 140.925 176.561 140.715 176.892 140.434C177.224 140.152 177.494 139.804 177.684 139.413C177.875 139.021 177.982 138.595 178 138.16Z" fill="#263238"/>
<path d="M172.9 139.51C174.232 139.467 175.543 139.853 176.64 140.61C175.988 141.013 175.225 141.202 174.46 141.15C173.132 141.187 171.826 140.801 170.73 140.05C171.377 139.644 172.138 139.454 172.9 139.51Z" fill="#A02724"/>
<path d="M177.69 138.1C177.618 138.351 177.478 138.577 177.285 138.753C177.093 138.93 176.856 139.05 176.6 139.1C174.584 139.033 172.577 138.799 170.6 138.4C170.283 138.365 169.98 138.25 169.72 138.066C169.459 137.883 169.25 137.636 169.11 137.35C171.985 137.372 174.854 137.623 177.69 138.1Z" fill="white"/>
<path d="M245.69 143.9C245.69 143.9 236.98 135.8 237.37 142.74C237.37 142.74 222.58 142.3 229.75 147.35C229.75 147.35 216.11 153.72 225.02 155.03C225.02 155.03 216.11 166.67 226.27 165.46C226.27 165.46 223.33 179.46 230.27 176.72C230.27 176.72 231.75 183.09 238.4 178.84C238.4 178.84 246.59 184.9 249.85 175.97C249.85 175.97 257.45 179.83 255.62 169.34C255.62 169.34 261.3 166.96 255.43 158.97C255.4 159 264.47 155.59 245.69 143.9Z" fill="#263238"/>
<path d="M282.8 183.08C282.488 181.36 281.824 179.722 280.85 178.27C279.495 176.243 277.892 174.392 276.08 172.76C272.862 169.831 269.319 167.281 265.52 165.16C264.858 164.794 264.089 164.668 263.345 164.805C262.601 164.942 261.927 165.333 261.439 165.911C260.95 166.489 260.678 167.218 260.667 167.975C260.656 168.731 260.908 169.468 261.38 170.06L261.47 170.16C263.91 173.23 266.47 176.34 268.63 179.38C269.457 180.533 270.196 181.746 270.84 183.01L270.72 183.07C270.048 183.377 269.356 183.641 268.65 183.86C266.964 184.393 265.252 184.84 263.52 185.2C261.7 185.59 259.83 185.92 257.94 186.2C256.05 186.48 254.08 186.81 252.32 187.07H252.16C250.446 187.272 248.881 188.146 247.811 189.501C246.741 190.856 246.254 192.58 246.455 194.295C246.657 196.01 247.531 197.574 248.886 198.644C250.241 199.714 251.966 200.202 253.68 200C255.97 199.8 258.01 199.51 260.17 199.13C262.33 198.75 264.43 198.29 266.58 197.71C268.816 197.128 271.008 196.39 273.14 195.5C274.345 194.999 275.514 194.418 276.64 193.76C278.107 192.914 279.427 191.837 280.55 190.57C281.383 189.605 282.027 188.492 282.45 187.29C282.577 186.918 282.678 186.537 282.75 186.15C282.828 185.774 282.878 185.393 282.9 185.01C282.928 184.365 282.894 183.719 282.8 183.08Z" fill="#263238"/>
<path d="M262.39 163.09L256.81 161.31L255.74 170.86C258.584 171.129 261.452 170.768 264.14 169.8C264.494 169.643 264.791 169.38 264.988 169.046C265.185 168.713 265.273 168.326 265.24 167.94C265.173 166.966 264.881 166.021 264.387 165.179C263.892 164.338 263.209 163.622 262.39 163.09Z" fill="#FFC3BD"/>
<path d="M251.38 164.79L251.44 168.14C251.453 168.874 251.756 169.573 252.282 170.084C252.809 170.596 253.516 170.878 254.25 170.87H255.74L256.81 161.32L253.57 162.03C252.941 162.165 252.379 162.513 251.979 163.017C251.58 163.521 251.368 164.147 251.38 164.79Z" fill="#FFC3BD"/>
<path opacity="0.2" d="M253.68 200C255.97 199.8 258.01 199.51 260.17 199.13C262.33 198.75 264.43 198.29 266.58 197.71C268.816 197.128 271.008 196.39 273.14 195.5C274.344 194.999 275.514 194.418 276.64 193.76C265.87 199.01 260.47 192.37 260.47 192.37H258.57L253.4 191.16L246.64 194.08L248.74 198.32C249.403 198.926 250.184 199.388 251.034 199.677C251.885 199.966 252.785 200.076 253.68 200Z" fill="black"/>
<path d="M265.16 406.24C266.204 402.435 266.718 398.505 266.69 394.56C266.69 394.56 275.12 392.47 274.79 395.4C274.18 400.7 277.09 409.4 282.79 411.9C286.04 413.33 283.16 415.36 280.56 415.38C276.43 415.38 276.24 414.73 273.1 412.85C270.42 411.25 269.36 410.62 266.84 410.65C264.73 410.68 264.67 408.62 265.16 406.24Z" fill="#263238"/>
<path d="M258.1 231.11C258.1 231.11 273.27 290.51 277.2 317.21C281.32 345.26 276.03 394.66 275.98 396.69C272.25 397.53 268.74 397.92 265.8 397.04C265.8 397.04 255.21 354.24 252.22 323.04C228.01 267.28 233.15 244.27 233.15 244.27L258.1 231.11Z" fill="#2A98FD"/>
<path opacity="0.2" d="M237.42 259.27C237.09 265.77 238.14 276.45 239.42 288.27C241.78 296.21 244.96 305.32 249.2 315.67C257.87 289.42 255.21 256.46 237.42 259.27Z" fill="black"/>
<path d="M234.63 412.79C227.32 411.72 222.72 406.34 223.63 401.03C224.12 398.1 214.72 397.2 214.72 397.2C215.58 406.43 213.62 407.61 212.85 409.93C212.08 412.25 212.04 414.86 213.99 415.05C216.32 415.27 217.43 414.89 220.33 415.2C223.71 415.57 227.33 415.95 233.39 416.38C235.77 416.55 237.88 413.27 234.63 412.79Z" fill="#263238"/>
<path d="M257.16 241.46C257.16 241.46 252.91 284.18 244.46 316C241.11 343.19 224.1 402.31 224.1 402.31C220.833 402.855 217.483 402.595 214.34 401.55C214.34 401.55 210.83 357.28 220.34 313.88C219.67 294.78 216.9 278.43 217.34 266.14C218.04 248.64 221.26 239.07 221.26 239.07L257.16 241.46Z" fill="#2A98FD"/>
<path d="M262.44 199.55C263.56 202.86 267.8 211.11 261 215.78C262.27 218.62 263.34 237.89 260.77 241.33C257.01 244.09 237.45 243.55 220.6 241.33C219.89 234.33 222.97 219.94 218.27 197.44C218.019 196.21 218.028 194.941 218.297 193.715C218.565 192.489 219.088 191.333 219.83 190.32C220.572 189.308 221.517 188.462 222.606 187.837C223.694 187.211 224.902 186.821 226.15 186.69C227.57 186.54 229.07 186.43 230.61 186.35C235.973 185.965 241.357 185.965 246.72 186.35C248.46 186.51 250.26 186.73 251.98 186.97C258.18 187.84 259.6 191.2 262.44 199.55Z" fill="#263238"/>
<path d="M231.61 169C232.9 174.18 234.15 182.64 232.11 187.14C232.11 187.14 238.11 187.41 246.34 192.94C246.861 193.293 247.474 193.485 248.104 193.494C248.733 193.503 249.352 193.328 249.883 192.99C250.414 192.652 250.835 192.166 251.094 191.593C251.353 191.019 251.438 190.382 251.34 189.76C251.181 189.15 250.864 188.592 250.422 188.143C249.98 187.694 249.427 187.369 248.82 187.2C244.75 186.2 244.11 181.3 244.11 177.44L231.61 169Z" fill="#FFC3BD"/>
<path opacity="0.2" d="M244.11 177.4L237 172.6C236.94 173.688 237.16 174.772 237.64 175.75C239.135 178.553 241.572 180.738 244.52 181.92C244.226 180.432 244.089 178.917 244.11 177.4Z" fill="black"/>
<path d="M228.23 159.45C230.23 167.88 230.94 171.45 235.93 175.12C243.45 180.57 253.16 176.27 253.65 167.41C254.08 159.41 250.65 146.98 241.92 145.04C233.19 143.1 226.21 151 228.23 159.45Z" fill="#FFC3BD"/>
<path d="M242.83 162.38C242.96 163.07 243.42 163.57 243.83 163.49C244.24 163.41 244.55 162.78 244.43 162.09C244.31 161.4 243.84 160.89 243.43 160.97C243.02 161.05 242.71 161.68 242.83 162.38Z" fill="#263238"/>
<path d="M248.82 162.05C249.715 163.529 250.812 164.875 252.08 166.05C251.77 166.366 251.394 166.612 250.98 166.769C250.565 166.926 250.122 166.991 249.68 166.96L248.82 162.05Z" fill="#ED847E"/>
<path d="M244.73 168.62C244.334 168.619 243.939 168.656 243.55 168.73C243.522 168.734 243.496 168.743 243.472 168.757C243.449 168.771 243.428 168.79 243.412 168.813C243.396 168.835 243.385 168.861 243.38 168.888C243.374 168.915 243.374 168.943 243.38 168.97C243.39 169.024 243.42 169.072 243.465 169.104C243.51 169.136 243.566 169.149 243.62 169.14C244.479 168.968 245.367 169 246.211 169.235C247.055 169.469 247.833 169.899 248.48 170.49C248.519 170.527 248.571 170.548 248.625 170.548C248.679 170.548 248.731 170.527 248.77 170.49C248.79 170.471 248.805 170.449 248.816 170.424C248.827 170.399 248.832 170.372 248.832 170.345C248.832 170.318 248.827 170.291 248.816 170.266C248.805 170.241 248.79 170.219 248.77 170.2C247.685 169.161 246.232 168.593 244.73 168.62Z" fill="#263238"/>
<path d="M227.62 167.3C227.946 168.012 228.418 168.646 229.005 169.163C229.593 169.68 230.283 170.068 231.03 170.3C232.96 170.83 233.91 168.72 233.36 166.58C232.87 164.65 231.28 162.05 229.36 162.48C227.44 162.91 226.73 165.41 227.62 167.3Z" fill="#FFC3BD"/>
<path d="M240.38 158.45C240.434 158.435 240.484 158.408 240.527 158.372C240.57 158.336 240.605 158.291 240.63 158.24C240.846 157.767 241.171 157.351 241.58 157.03C241.989 156.708 242.469 156.488 242.98 156.39C243.082 156.368 243.172 156.308 243.232 156.223C243.292 156.138 243.319 156.033 243.306 155.93C243.294 155.826 243.243 155.731 243.164 155.663C243.086 155.594 242.984 155.558 242.88 155.56C242.232 155.678 241.621 155.949 241.1 156.351C240.578 156.753 240.159 157.274 239.88 157.87C239.856 157.919 239.842 157.971 239.839 158.025C239.835 158.079 239.843 158.133 239.86 158.185C239.878 158.236 239.906 158.283 239.942 158.323C239.978 158.364 240.021 158.397 240.07 158.42C240.117 158.446 240.168 158.462 240.222 158.467C240.275 158.472 240.329 158.467 240.38 158.45Z" fill="#263238"/>
<path d="M253.33 157.19C253.412 157.183 253.491 157.151 253.554 157.097C253.617 157.044 253.662 156.972 253.683 156.892C253.704 156.812 253.699 156.728 253.67 156.65C253.641 156.573 253.589 156.506 253.52 156.46C253.006 156.048 252.401 155.765 251.755 155.637C251.11 155.508 250.442 155.536 249.81 155.72C249.707 155.758 249.624 155.835 249.577 155.934C249.531 156.033 249.524 156.147 249.56 156.25C249.598 156.353 249.675 156.436 249.774 156.483C249.873 156.529 249.986 156.536 250.09 156.5C250.592 156.36 251.119 156.343 251.629 156.449C252.139 156.555 252.616 156.782 253.02 157.11C253.062 157.146 253.112 157.173 253.166 157.186C253.219 157.2 253.276 157.202 253.33 157.19Z" fill="#263238"/>
<path d="M250.22 160.41C250.184 160.415 250.15 160.428 250.119 160.447C250.088 160.466 250.061 160.491 250.04 160.52C250.018 160.55 250.002 160.584 249.993 160.62C249.985 160.656 249.984 160.694 249.99 160.73C249.997 160.767 250.011 160.802 250.031 160.833C250.052 160.864 250.079 160.89 250.11 160.91C250.47 161.18 250.891 161.358 251.335 161.429C251.779 161.501 252.234 161.463 252.66 161.32C252.695 161.308 252.727 161.289 252.754 161.264C252.782 161.239 252.803 161.208 252.818 161.175C252.833 161.141 252.841 161.104 252.842 161.068C252.842 161.031 252.835 160.994 252.82 160.96C252.807 160.925 252.787 160.893 252.761 160.865C252.735 160.838 252.704 160.816 252.669 160.801C252.635 160.786 252.598 160.779 252.56 160.778C252.522 160.778 252.485 160.786 252.45 160.8C252.113 160.903 251.756 160.925 251.408 160.865C251.061 160.804 250.733 160.662 250.45 160.45C250.418 160.426 250.38 160.41 250.34 160.403C250.3 160.396 250.259 160.398 250.22 160.41Z" fill="#263238"/>
<path d="M243.24 161.05L244.82 160.27C244.82 160.27 244.2 161.73 243.24 161.05Z" fill="#263238"/>
<path opacity="0.2" d="M228.61 196.59L218.39 198.06C218.883 200.5 219.287 202.833 219.6 205.06C225.69 205.3 228.83 200.6 228.61 196.59Z" fill="black"/>
<path d="M223.84 186.86H223.65C220.85 186.72 217.65 186.69 215.14 186.45C215.49 185.72 215.91 184.95 216.37 184.17C217.16 182.87 218.05 181.54 218.99 180.22C220.86 177.57 222.99 174.89 224.99 172.22L225.08 172.12C225.545 171.512 225.781 170.759 225.746 169.994C225.712 169.229 225.409 168.501 224.892 167.937C224.374 167.373 223.674 167.009 222.915 166.909C222.156 166.809 221.386 166.979 220.74 167.39C217.691 169.349 214.81 171.56 212.13 174C210.719 175.254 209.384 176.589 208.13 178C206.728 179.544 205.51 181.245 204.5 183.07C203.847 184.249 203.356 185.51 203.04 186.82C202.839 187.719 202.759 188.64 202.8 189.56C202.857 190.755 203.15 191.928 203.66 193.01C203.847 193.408 204.068 193.79 204.32 194.15C204.557 194.503 204.821 194.838 205.11 195.15C205.542 195.606 206.022 196.015 206.54 196.37C207.241 196.861 207.992 197.277 208.78 197.61C209.894 198.083 211.044 198.464 212.22 198.75C214.154 199.239 216.123 199.573 218.11 199.75C219.998 199.931 221.896 199.981 223.79 199.9C225.514 199.9 227.167 199.215 228.386 197.996C229.605 196.777 230.29 195.124 230.29 193.4C230.29 191.676 229.605 190.023 228.386 188.804C227.167 187.585 225.514 186.9 223.79 186.9L223.84 186.86Z" fill="#263238"/>
<path opacity="0.2" d="M247.44 193.15C249.338 192.882 251.077 191.942 252.34 190.5C252.34 190.5 253.97 196.7 247.34 194.23C247.223 194.188 247.124 194.108 247.057 194.004C246.99 193.899 246.96 193.775 246.972 193.651C246.983 193.528 247.035 193.411 247.12 193.32C247.205 193.23 247.318 193.17 247.44 193.15Z" fill="black"/>
<path d="M228.62 186.47C229.24 185.751 229.643 184.87 229.78 183.93C229.883 183.469 230.163 183.066 230.559 182.808C230.955 182.55 231.437 182.458 231.9 182.55C234.9 183.13 240.9 183.83 245.4 181.55C251.65 178.39 244.48 183.39 250.57 187.3C250.57 187.3 254.15 193.39 247.57 193.89C240.99 194.39 228.62 186.47 228.62 186.47Z" fill="#263238"/>
<path d="M227.88 162.13C227.88 162.13 229.77 168.21 235.77 158.97C235.77 158.97 240.62 158.16 244.32 148.63C244.32 148.63 242.77 154.23 244.52 154.63C246.27 155.03 248 146.63 248 146.63C246.218 145.035 244.027 143.967 241.673 143.547C239.319 143.127 236.894 143.37 234.67 144.25C226.52 147.13 225.48 157.29 227.88 162.13Z" fill="#263238"/>
<path d="M219.87 168.17L219.6 162.32L229.1 163.76C229.1 163.76 228.23 169.46 225.01 172.6L223.82 172.17C222.897 171.854 222.06 171.328 221.375 170.634C220.69 169.94 220.175 169.097 219.87 168.17Z" fill="#FFC3BD"/>
<path d="M224.37 158L227.59 158.93C228.295 159.133 228.892 159.606 229.25 160.246C229.608 160.887 229.698 161.643 229.5 162.35L229.1 163.79L219.6 162.35L221.13 159.4C221.425 158.828 221.909 158.375 222.499 158.12C223.09 157.865 223.751 157.822 224.37 158Z" fill="#FFC3BD"/>
</svg>
