<svg width="118" height="90" viewBox="0 0 118 90" fill="none" xmlns="http://www.w3.org/2000/svg">
<path d="M99.6372 7.53745C92.0398 4.01615 83.9168 1.45684 75.4237 -0.000488281C74.3811 1.86783 73.1625 4.38048 72.322 6.37924C63.2943 5.03436 54.3488 5.03436 45.4869 6.37924C44.6469 4.38048 43.4011 1.86783 42.3482 -0.000488281C33.8467 1.45684 25.714 4.0257 18.1166 7.556C2.79286 30.4948 -1.36116 52.864 0.715565 74.9156C10.879 82.4344 20.7291 87.0015 30.4123 89.9904C32.8035 86.7305 34.9358 83.2654 36.7725 79.6137C33.274 78.2969 29.9231 76.6715 26.7572 74.7852C27.5972 74.1684 28.4185 73.5241 29.2125 72.8606C48.5239 81.8087 69.5068 81.8087 88.5878 72.8606C89.3909 73.5241 90.2122 74.1684 91.0431 74.7852C87.8676 76.681 84.5076 78.3059 81.0086 79.6232C82.8458 83.2654 84.969 86.7401 87.3693 89.9999C97.0616 87.0111 106.921 82.444 117.084 74.9156C119.521 49.3523 112.921 27.1883 99.6372 7.53745ZM39.4037 61.3544C33.6066 61.3544 28.8521 55.9929 28.8521 49.4642C28.8521 42.9355 33.505 37.5649 39.4037 37.5649C45.3024 37.5649 50.0563 42.9265 49.9548 49.4642C49.9644 55.9929 45.3024 61.3544 39.4037 61.3544ZM78.3966 61.3544C72.5989 61.3544 67.845 55.9929 67.845 49.4642C67.845 42.9355 72.4973 37.5649 78.3966 37.5649C84.2948 37.5649 89.0493 42.9265 88.9477 49.4642C88.9477 55.9929 84.2948 61.3544 78.3966 61.3544Z" fill="#5865F2"/>
</svg>
