<svg width="500" height="500" viewBox="0 0 500 500" fill="none" xmlns="http://www.w3.org/2000/svg">
<rect width="500" height="500" fill="#48BBED"/>
<path d="M104.87 238.52C109.045 238.52 112.393 239.739 114.914 242.178C117.435 244.617 118.696 248.233 118.696 253.028V272H110.946V254.02C110.946 251.127 110.264 248.957 108.9 247.51C107.536 246.022 105.593 245.278 103.072 245.278C100.22 245.278 97.9673 246.146 96.314 247.882C94.6607 249.577 93.834 252.036 93.834 255.26V272H86.084V225.996H93.834V242.736C95.1153 241.372 96.686 240.339 98.546 239.636C100.447 238.892 102.555 238.52 104.87 238.52ZM161.194 238.892V272H153.816V267.722C152.535 269.293 150.943 270.471 149.042 271.256C147.182 272.041 145.115 272.434 142.842 272.434C139.618 272.434 136.725 271.731 134.162 270.326C131.641 268.921 129.657 266.937 128.21 264.374C126.805 261.811 126.102 258.835 126.102 255.446C126.102 252.057 126.805 249.101 128.21 246.58C129.657 244.017 131.641 242.033 134.162 240.628C136.725 239.223 139.618 238.52 142.842 238.52C144.991 238.52 146.955 238.892 148.732 239.636C150.551 240.38 152.121 241.475 153.444 242.922V238.892H161.194ZM143.71 265.8C146.562 265.8 148.918 264.849 150.778 262.948C152.638 261.047 153.568 258.546 153.568 255.446C153.568 252.346 152.638 249.845 150.778 247.944C148.918 246.043 146.562 245.092 143.71 245.092C140.858 245.092 138.502 246.043 136.642 247.944C134.823 249.845 133.914 252.346 133.914 255.446C133.914 258.546 134.823 261.047 136.642 262.948C138.502 264.849 140.858 265.8 143.71 265.8ZM186.524 272.434C183.093 272.434 180.014 271.711 177.286 270.264C174.558 268.817 172.429 266.813 170.9 264.25C169.371 261.646 168.606 258.711 168.606 255.446C168.606 252.181 169.371 249.267 170.9 246.704C172.429 244.141 174.537 242.137 177.224 240.69C179.952 239.243 183.052 238.52 186.524 238.52C189.789 238.52 192.641 239.181 195.08 240.504C197.56 241.827 199.42 243.728 200.66 246.208L194.708 249.68C193.757 248.151 192.559 247.014 191.112 246.27C189.707 245.485 188.157 245.092 186.462 245.092C183.569 245.092 181.171 246.043 179.27 247.944C177.369 249.804 176.418 252.305 176.418 255.446C176.418 258.587 177.348 261.109 179.208 263.01C181.109 264.87 183.527 265.8 186.462 265.8C188.157 265.8 189.707 265.428 191.112 264.684C192.559 263.899 193.757 262.741 194.708 261.212L200.66 264.684C199.379 267.164 197.498 269.086 195.018 270.45C192.579 271.773 189.748 272.434 186.524 272.434ZM220.573 257.802L214.807 263.258V272H207.057V225.996H214.807V253.772L230.865 238.892H240.165L226.339 252.78L241.467 272H232.043L220.573 257.802ZM282.393 238.52C286.568 238.52 289.916 239.739 292.437 242.178C294.959 244.617 296.219 248.233 296.219 253.028V272H288.469V254.02C288.469 251.127 287.787 248.957 286.423 247.51C285.059 246.022 283.117 245.278 280.595 245.278C277.743 245.278 275.491 246.146 273.837 247.882C272.184 249.577 271.357 252.036 271.357 255.26V272H263.607V225.996H271.357V242.736C272.639 241.372 274.209 240.339 276.069 239.636C277.971 238.892 280.079 238.52 282.393 238.52ZM338.718 238.892V272H331.34V267.722C330.058 269.293 328.467 270.471 326.566 271.256C324.706 272.041 322.639 272.434 320.366 272.434C317.142 272.434 314.248 271.731 311.686 270.326C309.164 268.921 307.18 266.937 305.734 264.374C304.328 261.811 303.626 258.835 303.626 255.446C303.626 252.057 304.328 249.101 305.734 246.58C307.18 244.017 309.164 242.033 311.686 240.628C314.248 239.223 317.142 238.52 320.366 238.52C322.515 238.52 324.478 238.892 326.256 239.636C328.074 240.38 329.645 241.475 330.968 242.922V238.892H338.718ZM321.234 265.8C324.086 265.8 326.442 264.849 328.302 262.948C330.162 261.047 331.092 258.546 331.092 255.446C331.092 252.346 330.162 249.845 328.302 247.944C326.442 246.043 324.086 245.092 321.234 245.092C318.382 245.092 316.026 246.043 314.166 247.944C312.347 249.845 311.438 252.346 311.438 255.446C311.438 258.546 312.347 261.047 314.166 262.948C316.026 264.849 318.382 265.8 321.234 265.8ZM364.047 272.434C360.617 272.434 357.537 271.711 354.809 270.264C352.081 268.817 349.953 266.813 348.423 264.25C346.894 261.646 346.129 258.711 346.129 255.446C346.129 252.181 346.894 249.267 348.423 246.704C349.953 244.141 352.061 242.137 354.747 240.69C357.475 239.243 360.575 238.52 364.047 238.52C367.313 238.52 370.165 239.181 372.603 240.504C375.083 241.827 376.943 243.728 378.183 246.208L372.231 249.68C371.281 248.151 370.082 247.014 368.635 246.27C367.23 245.485 365.68 245.092 363.985 245.092C361.092 245.092 358.695 246.043 356.793 247.944C354.892 249.804 353.941 252.305 353.941 255.446C353.941 258.587 354.871 261.109 356.731 263.01C358.633 264.87 361.051 265.8 363.985 265.8C365.68 265.8 367.23 265.428 368.635 264.684C370.082 263.899 371.281 262.741 372.231 261.212L378.183 264.684C376.902 267.164 375.021 269.086 372.541 270.45C370.103 271.773 367.271 272.434 364.047 272.434ZM398.096 257.802L392.33 263.258V272H384.58V225.996H392.33V253.772L408.388 238.892H417.688L403.862 252.78L418.99 272H409.566L398.096 257.802Z" fill="#F3F3F3"/>
</svg>
