<svg width="151" height="61" viewBox="0 0 151 61" fill="none" xmlns="http://www.w3.org/2000/svg">
<path d="M55.1148 18.8812C49.911 19.9996 47.2123 23.3107 47.1923 28.4572C47.1797 31.7041 47.1846 34.9511 47.188 38.198C47.1896 39.7062 46.8499 41.0186 45.0819 41.2393C43.7234 41.409 42.7081 40.1997 42.6828 38.2586C42.6281 34.0548 42.4041 29.8351 43.0102 25.6561C43.6192 21.4566 45.9012 18.3602 49.6015 16.2928C50.1662 15.9773 50.8692 15.8827 51.344 15.2019C50.7739 13.4595 49.7726 11.7953 49.7931 9.79844C49.8333 5.87325 52.2334 2.09375 55.7382 0.672444C59.3573 -0.79518 63.8638 0.201729 66.5147 3.05637C69.3907 6.15347 70.1046 10.4189 68.1832 14.0539C67.5831 15.189 67.8052 15.7006 68.7866 16.3548C70.2628 17.3387 71.632 18.4833 73.4059 19.8329C73.232 16.3105 73.9192 13.4982 76.9072 11.8311C78.5753 10.9005 80.3713 10.8099 82.1538 11.2835C85.7655 12.2431 87.9814 16.0051 87.1125 19.5368C86.0268 23.9498 82.7342 25.1936 75.9262 23.7159C75.3991 24.7228 76.1227 25.6739 76.1049 26.6586C76.0333 30.6256 76.0959 34.5949 76.079 38.5632C76.0714 40.3289 75.2588 41.3427 73.8979 41.2407C72.306 41.1214 71.8293 40.0336 71.8311 38.6023C71.8344 35.7763 71.8222 32.9503 71.8198 30.1242C71.8136 22.9946 68.1271 19.043 61.0217 18.6228C59.103 18.5093 57.1734 18.4983 55.1148 18.8812ZM54.4463 9.78219C54.7198 10.9932 55.3502 11.9891 56.2784 12.8016C57.8612 14.187 60.1491 14.3937 61.9653 13.32C63.7784 12.2481 64.6895 10.0145 64.188 7.87083C63.7776 6.11641 62.0059 4.69645 59.966 4.48698C56.9968 4.18208 54.6657 6.2932 54.4463 9.78219ZM79.3404 20.3017C80.6728 20.6767 81.8186 20.4369 82.6732 19.2735C83.2504 18.4877 83.3963 17.6524 82.8993 16.7688C82.2989 15.7014 81.3884 14.9997 80.1624 15.0719C78.9459 15.1437 78.0129 15.8716 77.6539 17.0599C77.2289 18.4669 77.8985 19.4723 79.3404 20.3017Z" fill="#00C2FF"/>
<path d="M44.3368 18.2737C43.9555 22.0579 41.2673 24.5823 37.676 24.6696C34.5891 24.7446 31.4972 22.1537 31.0752 19.1383C30.5636 15.482 32.7089 12.0669 36.0541 11.2121C39.3073 10.3808 42.8282 12.2743 44.04 15.47C44.3713 16.3438 44.3162 17.2342 44.3368 18.2737ZM34.9787 18.0973C36.0107 20.4003 37.7726 21.1232 39.2387 19.8175C40.1836 18.9759 40.4622 17.896 40.003 16.7213C39.5717 15.6176 38.6748 14.9177 37.4978 15.0601C35.9597 15.2462 35.0705 16.2396 34.9787 18.0973Z" fill="#00C2FF"/>
<path d="M64.635 32.8771C64.6947 31.6229 64.6588 30.5293 64.8386 29.4724C65.0455 28.2566 65.8505 27.6091 67.1432 27.6651C68.353 27.7176 69.0206 28.3843 69.2199 29.5265C69.7828 32.7528 69.52 36.0035 69.3814 39.2395C69.3262 40.5284 68.4166 41.2859 67.0639 41.2826C65.5732 41.2789 64.8448 40.2991 64.7442 39.0019C64.591 37.0283 64.66 35.0374 64.635 32.8771Z" fill="#00C2FF"/>
<path d="M54.1004 40.5711C51.6794 41.8768 50.2127 41.064 50.1832 38.5246C50.1518 35.8262 50.1508 33.1269 50.1867 30.4287C50.2107 28.6233 51.0918 27.6174 52.5622 27.6886C54.2318 27.7694 54.7917 28.8171 54.7802 30.3561C54.7601 33.0546 54.7732 35.7534 54.7825 38.4521C54.785 39.1828 54.7704 39.8984 54.1004 40.5711Z" fill="#00C2FF"/>
<path d="M83.4061 32.5694C83.4048 32.2188 83.3952 32.038 83.4053 31.8584C83.526 29.7098 84.3469 28.6234 85.8009 28.6834C87.2922 28.7449 87.9947 29.7825 87.9972 31.9683C87.9997 34.1907 88.0098 36.4137 87.9678 38.6356C87.9372 40.2559 87.0035 41.3026 85.6318 41.2465C84.028 41.181 83.4922 40.0932 83.4572 38.6861C83.4079 36.7049 83.4206 34.722 83.4061 32.5694Z" fill="#00C2FF"/>
<path d="M32.1058 35.0974C32.0508 33.7866 31.9348 32.645 31.9567 31.5061C31.9921 29.6635 32.878 28.6595 34.3272 28.7458C36.0737 28.8498 36.4383 29.9972 36.4106 31.5014C36.3652 33.9654 36.3774 36.4308 36.3862 38.8955C36.3913 40.3236 35.7942 41.2786 34.294 41.2398C32.865 41.2029 32.1551 40.2972 32.1344 38.8749C32.1169 37.6726 32.1153 36.4702 32.1058 35.0974Z" fill="#00C2FF"/>
<path d="M22.9629 10.0625C23.5 10.0625 23.9655 10.2594 24.3594 10.6533C24.7533 11.0472 24.9502 11.5306 24.9502 12.1035V39.2275C24.9502 39.7646 24.7533 40.2301 24.3594 40.624C23.9655 41.0179 23.5 41.2148 22.9629 41.2148C22.4258 41.2148 21.9603 41.0179 21.5664 40.624C21.1725 40.2301 20.9756 39.7646 20.9756 39.2275V27.5723H4.27148V39.2275C4.27148 39.7646 4.07454 40.2301 3.68066 40.624C3.28678 41.0179 2.80339 41.2148 2.23047 41.2148C1.69336 41.2148 1.22786 41.0179 0.833984 40.624C0.440104 40.2301 0.243164 39.7646 0.243164 39.2275V12.1035C0.243164 11.5664 0.440104 11.1009 0.833984 10.707C1.22786 10.2773 1.69336 10.0625 2.23047 10.0625C2.76758 10.0625 3.23307 10.2594 3.62695 10.6533C4.05664 11.0472 4.27148 11.5306 4.27148 12.1035V23.8125H20.9756V12.1035C20.9756 11.5664 21.1725 11.1009 21.5664 10.707C21.9603 10.2773 22.4258 10.0625 22.9629 10.0625Z" fill="black"/>
<path d="M117.548 35.5215C117.763 35.4141 118.085 35.3604 118.515 35.3604C118.944 35.3604 119.32 35.5394 119.643 35.8975C119.965 36.2197 120.126 36.5957 120.126 37.0254C120.126 37.8132 119.786 38.3861 119.105 38.7441C117.745 39.5319 116.277 40.1764 114.701 40.6777C113.161 41.179 111.282 41.4297 109.062 41.4297C106.877 41.4297 104.836 41.0716 102.938 40.3555C101.076 39.6393 99.4652 38.6009 98.1045 37.2402C95.1683 34.3757 93.7002 30.5085 93.7002 25.6387C93.7002 20.8047 95.1683 16.9375 98.1045 14.0371C100.933 11.2441 104.604 9.84766 109.115 9.84766C111.299 9.84766 113.161 10.1162 114.701 10.6533C116.277 11.1904 117.476 11.6917 118.3 12.1572C119.123 12.5869 119.625 12.945 119.804 13.2314C120.019 13.4821 120.126 13.8223 120.126 14.252C120.126 14.6816 119.965 15.0755 119.643 15.4336C119.32 15.7559 118.944 15.917 118.515 15.917C118.121 15.917 117.799 15.8633 117.548 15.7559C116.366 15.1113 115.149 14.61 113.896 14.252C112.678 13.8581 111.156 13.6611 109.33 13.6611C107.504 13.6611 105.839 13.9834 104.335 14.6279C102.867 15.2367 101.632 16.0781 100.629 17.1523C98.6595 19.3008 97.6927 22.1296 97.7285 25.6387C97.7285 29.1478 98.6953 31.9766 100.629 34.125C102.777 36.4525 105.731 37.6162 109.491 37.6162C111.21 37.6162 112.678 37.4372 113.896 37.0791C115.149 36.6852 116.366 36.166 117.548 35.5215Z" fill="black"/>
<path d="M149.56 37.9922C149.882 38.3861 150.043 38.8516 150.043 39.3887C150.043 39.89 149.864 40.3197 149.506 40.6777C149.148 41.0358 148.664 41.2148 148.056 41.2148C147.447 41.2148 146.928 40.9642 146.498 40.4629L135.165 25.9609L130.17 31.0098V39.2275C130.17 39.7646 129.973 40.2301 129.579 40.624C129.185 41.0179 128.702 41.2148 128.129 41.2148C127.592 41.2148 127.126 41.0179 126.732 40.624C126.339 40.2301 126.142 39.7646 126.142 39.2275V12.1035C126.142 11.5664 126.339 11.1009 126.732 10.707C127.126 10.2773 127.592 10.0625 128.129 10.0625C128.666 10.0625 129.132 10.2594 129.525 10.6533C129.955 11.0472 130.17 11.5306 130.17 12.1035V26.0684L145.209 10.8145C145.567 10.349 146.033 10.1162 146.605 10.1162C147.214 10.0804 147.698 10.2415 148.056 10.5996C148.414 10.9219 148.593 11.3695 148.593 11.9424C148.593 12.4795 148.414 12.8913 148.056 13.1777L137.904 23.2754L149.56 37.9922Z" fill="black"/>
<path d="M38.918 48.8281C40.4023 48.8281 41.5156 49.2122 42.2578 49.9805C42.8698 50.5924 43.1823 51.3932 43.1953 52.3828C43.1953 53.3594 42.8828 54.1602 42.2578 54.7852C41.5026 55.5534 40.3893 55.9375 38.918 55.9375H36.0078V59.3555C36.0078 59.5508 35.9362 59.7201 35.793 59.8633C35.6497 60.0065 35.474 60.0781 35.2656 60.0781C35.0703 60.0781 34.901 60.0065 34.7578 59.8633C34.6146 59.7201 34.543 59.5508 34.543 59.3555V49.5703C34.543 49.375 34.6146 49.2057 34.7578 49.0625C34.901 48.9062 35.0703 48.8281 35.2656 48.8281H38.918ZM38.7812 54.5703C39.875 54.5703 40.6693 54.3359 41.1641 53.8672C41.5547 53.5026 41.7435 53.0078 41.7305 52.3828C41.7305 51.3932 41.2357 50.7357 40.2461 50.4102C39.8555 50.2799 39.3672 50.2083 38.7812 50.1953H36.0078V54.5703H38.7812Z" fill="#AAAAAA"/>
<path d="M50.1445 50.2734C51.1602 49.2057 52.5143 48.6719 54.207 48.6719C55.8997 48.6719 57.2539 49.2057 58.2695 50.2734C59.2591 51.3281 59.7734 52.7083 59.8125 54.4141C59.7734 56.1068 59.2591 57.487 58.2695 58.5547C57.2539 59.6224 55.8997 60.1562 54.207 60.1562C52.5143 60.1562 51.1602 59.6224 50.1445 58.5547C49.1289 57.487 48.6081 56.1068 48.582 54.4141C48.6081 52.7214 49.1289 51.3411 50.1445 50.2734ZM54.207 58.7891C55.5091 58.7891 56.5312 58.3724 57.2734 57.5391C58.0026 56.7318 58.3672 55.6901 58.3672 54.4141C58.3672 53.138 58.0026 52.0964 57.2734 51.2891C56.5182 50.4427 55.4961 50.026 54.207 50.0391C52.9049 50.0391 51.8763 50.4557 51.1211 51.2891C50.3919 52.0964 50.0339 53.138 50.0469 54.4141C50.0469 55.6901 50.4049 56.7318 51.1211 57.5391C51.8763 58.3724 52.9049 58.7891 54.207 58.7891Z" fill="#AAAAAA"/>
<path d="M74.9258 59.3555C74.9258 59.5508 74.8542 59.7201 74.7109 59.8633C74.5807 60.0065 74.4049 60.0781 74.1836 60.0781C73.9753 60.0781 73.7995 60.013 73.6562 59.8828C73.526 59.7526 73.4609 59.5768 73.4609 59.3555V58.8672C73.4609 58.0078 73.3633 57.3763 73.168 56.9727C72.9857 56.569 72.7253 56.25 72.3867 56.0156C72.0612 55.7682 71.5924 55.6445 70.9805 55.6445H67.6797V59.3555C67.6797 59.5508 67.6081 59.7201 67.4648 59.8633C67.3216 60.0065 67.1458 60.0781 66.9375 60.0781C66.7422 60.0781 66.5729 60.0065 66.4297 59.8633C66.2865 59.7201 66.2148 59.5508 66.2148 59.3555V49.5703C66.2148 49.375 66.2865 49.2057 66.4297 49.0625C66.5729 48.9062 66.7422 48.8281 66.9375 48.8281H70.668C72.1263 48.8281 73.2331 49.1406 73.9883 49.7656C74.6914 50.3516 75.0365 51.1198 75.0234 52.0703C75.0234 52.6823 74.8477 53.2617 74.4961 53.8086C74.1576 54.3424 73.6302 54.7266 72.9141 54.9609C73.6823 55.1562 74.2422 55.7161 74.5938 56.6406C74.8281 57.2396 74.9388 57.9036 74.9258 58.6328V59.3555ZM70.5703 54.2578C71.4688 54.2578 72.1914 54.0885 72.7383 53.75C73.2852 53.3984 73.5586 52.8776 73.5586 52.1875C73.5586 51.5495 73.3438 51.0677 72.9141 50.7422C72.4062 50.3776 71.599 50.1953 70.4922 50.1953H67.6797V54.2578H70.5703Z" fill="#AAAAAA"/>
<path d="M88.9258 48.8281C89.1211 48.8281 89.2839 48.8997 89.4141 49.043C89.5443 49.1732 89.6094 49.3294 89.6094 49.5117C89.6094 49.694 89.5443 49.8568 89.4141 50C89.2839 50.1302 89.1211 50.1953 88.9258 50.1953H85.6641V59.3555C85.6641 59.5508 85.5924 59.7201 85.4492 59.8633C85.319 60.0065 85.1497 60.0781 84.9414 60.0781C84.7461 60.0781 84.5768 60.0065 84.4336 59.8633C84.2904 59.7201 84.2188 59.5508 84.2188 59.3555V50.1953H80.957C80.7747 50.1953 80.612 50.1302 80.4688 50C80.3385 49.8698 80.2734 49.707 80.2734 49.5117C80.2734 49.3294 80.3385 49.1732 80.4688 49.043C80.599 48.8997 80.7617 48.8281 80.957 48.8281H88.9258Z" fill="#AAAAAA"/>
<path d="M104.488 59.043C104.54 59.1732 104.566 59.3099 104.566 59.4531C104.566 59.5833 104.501 59.7201 104.371 59.8633C104.254 60.0065 104.052 60.0781 103.766 60.0781C103.492 60.0781 103.29 59.9284 103.16 59.6289L102.125 57.1484H96.6758L95.6602 59.6289C95.5299 59.9284 95.3216 60.0781 95.0352 60.0781C94.7617 60.0781 94.5599 60.0065 94.4297 59.8633C94.3125 59.7201 94.2539 59.5833 94.2539 59.4531C94.2539 59.3099 94.2799 59.1732 94.332 59.043L98.3945 49.4141C98.5768 48.9714 98.8893 48.75 99.332 48.75H99.4883C99.918 48.75 100.23 48.9714 100.426 49.4141L104.488 59.043ZM101.578 55.8203L99.4102 50.6055L97.2422 55.8203H101.578Z" fill="#AAAAAA"/>
<path d="M110.344 48.9648C110.344 48.7565 110.415 48.5872 110.559 48.457C110.702 48.3138 110.878 48.2422 111.086 48.2422C111.294 48.2422 111.464 48.3138 111.594 48.457C111.737 48.5872 111.809 48.7565 111.809 48.9648V59.3555C111.809 59.5508 111.737 59.7201 111.594 59.8633C111.464 60.0065 111.294 60.0781 111.086 60.0781C110.878 60.0781 110.702 60.0065 110.559 59.8633C110.415 59.7201 110.344 59.5508 110.344 59.3555V48.9648Z" fill="#AAAAAA"/>
</svg>
