<svg width="150" height="42" viewBox="0 0 150 42" fill="none" xmlns="http://www.w3.org/2000/svg">
<path d="M54.8716 18.8812C49.6678 19.9996 46.9692 23.3107 46.9492 28.4572C46.9365 31.7041 46.9414 34.9511 46.9448 38.198C46.9464 39.7062 46.6067 41.0186 44.8387 41.2393C43.4803 41.409 42.4649 40.1997 42.4397 38.2586C42.3849 34.0548 42.161 29.8351 42.767 25.6561C43.3761 21.4566 45.658 18.3602 49.3583 16.2928C49.923 15.9773 50.6261 15.8827 51.1008 15.2019C50.5307 13.4595 49.5294 11.7953 49.5499 9.79844C49.5902 5.87325 51.9902 2.09375 55.4951 0.672444C59.1141 -0.79518 63.6207 0.201729 66.2715 3.05637C69.1475 6.15347 69.8614 10.4189 67.94 14.0539C67.34 15.189 67.562 15.7006 68.5434 16.3548C70.0197 17.3387 71.3889 18.4833 73.1628 19.8329C72.9889 16.3105 73.676 13.4982 76.6641 11.8311C78.3321 10.9005 80.1281 10.8099 81.9106 11.2835C85.5223 12.2431 87.7382 16.0051 86.8693 19.5368C85.7836 23.9498 82.491 25.1936 75.683 23.7159C75.156 24.7228 75.8796 25.6739 75.8618 26.6586C75.7901 30.6256 75.8527 34.5949 75.8358 38.5632C75.8283 40.3289 75.0157 41.3427 73.6548 41.2407C72.0628 41.1214 71.5862 40.0336 71.5879 38.6023C71.5913 35.7763 71.5791 32.9503 71.5766 30.1242C71.5704 22.9946 67.8839 19.043 60.7785 18.6228C58.8598 18.5093 56.9303 18.4983 54.8716 18.8812ZM54.2032 9.78219C54.4767 10.9932 55.107 11.9891 56.0352 12.8016C57.618 14.187 59.906 14.3937 61.7222 13.32C63.5353 12.2481 64.4464 10.0145 63.9449 7.87083C63.5344 6.11641 61.7627 4.69645 59.7229 4.48698C56.7537 4.18208 54.4225 6.2932 54.2032 9.78219ZM79.0972 20.3017C80.4296 20.6767 81.5755 20.4369 82.43 19.2735C83.0072 18.4877 83.1532 17.6524 82.6561 16.7688C82.0557 15.7014 81.1452 14.9997 79.9192 15.0719C78.7028 15.1437 77.7697 15.8716 77.4108 17.0599C76.9857 18.4669 77.6553 19.4723 79.0972 20.3017Z" fill="#00C2FF"/>
<path d="M44.0937 18.2737C43.7123 22.0579 41.0242 24.5823 37.4328 24.6696C34.3459 24.7446 31.254 22.1537 30.8321 19.1383C30.3205 15.482 32.4657 12.0669 35.8109 11.2121C39.0641 10.3808 42.585 12.2743 43.7968 15.47C44.1282 16.3438 44.073 17.2342 44.0937 18.2737ZM34.7355 18.0973C35.7676 20.4003 37.5294 21.1232 38.9955 19.8175C39.9405 18.9759 40.219 17.896 39.7599 16.7213C39.3285 15.6176 38.4316 14.9177 37.2546 15.0601C35.7165 15.2462 34.8273 16.2396 34.7355 18.0973Z" fill="#00C2FF"/>
<path d="M64.3918 32.8771C64.4516 31.6229 64.4156 30.5293 64.5955 29.4724C64.8024 28.2566 65.6073 27.6091 66.9 27.6651C68.1098 27.7176 68.7775 28.3843 68.9768 29.5265C69.5397 32.7528 69.2769 36.0035 69.1382 39.2395C69.083 40.5284 68.1734 41.2859 66.8208 41.2826C65.3301 41.2789 64.6017 40.2991 64.501 39.0019C64.3478 37.0283 64.4169 35.0374 64.3918 32.8771Z" fill="#00C2FF"/>
<path d="M53.8573 40.5711C51.4363 41.8768 49.9695 41.064 49.94 38.5246C49.9086 35.8262 49.9077 33.1269 49.9435 30.4287C49.9675 28.6233 50.8487 27.6174 52.3191 27.6886C53.9887 27.7694 54.5485 28.8171 54.537 30.3561C54.5169 33.0546 54.53 35.7534 54.5393 38.4521C54.5418 39.1828 54.5272 39.8984 53.8573 40.5711Z" fill="#00C2FF"/>
<path d="M83.1629 32.5694C83.1617 32.2188 83.1521 32.038 83.1622 31.8584C83.2828 29.7098 84.1038 28.6234 85.5577 28.6834C87.049 28.7449 87.7515 29.7825 87.754 31.9683C87.7566 34.1907 87.7667 36.4137 87.7247 38.6356C87.694 40.2559 86.7603 41.3026 85.3886 41.2465C83.7849 41.181 83.249 40.0932 83.214 38.6861C83.1647 36.7049 83.1775 34.722 83.1629 32.5694Z" fill="#00C2FF"/>
<path d="M31.8626 35.0974C31.8076 33.7866 31.6917 32.645 31.7135 31.5061C31.7489 29.6635 32.6348 28.6595 34.084 28.7458C35.8305 28.8498 36.1951 29.9972 36.1674 31.5014C36.1221 33.9654 36.1343 36.4308 36.1431 38.8955C36.1482 40.3236 35.551 41.2786 34.0509 41.2398C32.6218 41.2029 31.9119 40.2972 31.8912 38.8749C31.8738 37.6726 31.8722 36.4702 31.8626 35.0974Z" fill="#00C2FF"/>
<path d="M22.7197 10.0625C23.2568 10.0625 23.7223 10.2594 24.1162 10.6533C24.5101 11.0472 24.707 11.5306 24.707 12.1035V39.2275C24.707 39.7646 24.5101 40.2301 24.1162 40.624C23.7223 41.0179 23.2568 41.2148 22.7197 41.2148C22.1826 41.2148 21.7171 41.0179 21.3232 40.624C20.9294 40.2301 20.7324 39.7646 20.7324 39.2275V27.5723H4.02832V39.2275C4.02832 39.7646 3.83138 40.2301 3.4375 40.624C3.04362 41.0179 2.56022 41.2148 1.9873 41.2148C1.4502 41.2148 0.984701 41.0179 0.59082 40.624C0.19694 40.2301 0 39.7646 0 39.2275V12.1035C0 11.5664 0.19694 11.1009 0.59082 10.707C0.984701 10.2773 1.4502 10.0625 1.9873 10.0625C2.52441 10.0625 2.98991 10.2594 3.38379 10.6533C3.81348 11.0472 4.02832 11.5306 4.02832 12.1035V23.8125H20.7324V12.1035C20.7324 11.5664 20.9294 11.1009 21.3232 10.707C21.7171 10.2773 22.1826 10.0625 22.7197 10.0625Z" fill="black"/>
<path d="M117.305 35.5215C117.52 35.4141 117.842 35.3604 118.271 35.3604C118.701 35.3604 119.077 35.5394 119.399 35.8975C119.722 36.2197 119.883 36.5957 119.883 37.0254C119.883 37.8132 119.543 38.3861 118.862 38.7441C117.502 39.5319 116.034 40.1764 114.458 40.6777C112.918 41.179 111.038 41.4297 108.818 41.4297C106.634 41.4297 104.593 41.0716 102.695 40.3555C100.833 39.6393 99.222 38.6009 97.8613 37.2402C94.9251 34.3757 93.457 30.5085 93.457 25.6387C93.457 20.8047 94.9251 16.9375 97.8613 14.0371C100.69 11.2441 104.36 9.84766 108.872 9.84766C111.056 9.84766 112.918 10.1162 114.458 10.6533C116.034 11.1904 117.233 11.6917 118.057 12.1572C118.88 12.5869 119.382 12.945 119.561 13.2314C119.775 13.4821 119.883 13.8223 119.883 14.252C119.883 14.6816 119.722 15.0755 119.399 15.4336C119.077 15.7559 118.701 15.917 118.271 15.917C117.878 15.917 117.555 15.8633 117.305 15.7559C116.123 15.1113 114.906 14.61 113.652 14.252C112.435 13.8581 110.913 13.6611 109.087 13.6611C107.261 13.6611 105.596 13.9834 104.092 14.6279C102.624 15.2367 101.388 16.0781 100.386 17.1523C98.4163 19.3008 97.4495 22.1296 97.4854 25.6387C97.4854 29.1478 98.4521 31.9766 100.386 34.125C102.534 36.4525 105.488 37.6162 109.248 37.6162C110.967 37.6162 112.435 37.4372 113.652 37.0791C114.906 36.6852 116.123 36.166 117.305 35.5215Z" fill="black"/>
<path d="M149.316 37.9922C149.639 38.3861 149.8 38.8516 149.8 39.3887C149.8 39.89 149.621 40.3197 149.263 40.6777C148.905 41.0358 148.421 41.2148 147.812 41.2148C147.204 41.2148 146.685 40.9642 146.255 40.4629L134.922 25.9609L129.927 31.0098V39.2275C129.927 39.7646 129.73 40.2301 129.336 40.624C128.942 41.0179 128.459 41.2148 127.886 41.2148C127.349 41.2148 126.883 41.0179 126.489 40.624C126.095 40.2301 125.898 39.7646 125.898 39.2275V12.1035C125.898 11.5664 126.095 11.1009 126.489 10.707C126.883 10.2773 127.349 10.0625 127.886 10.0625C128.423 10.0625 128.888 10.2594 129.282 10.6533C129.712 11.0472 129.927 11.5306 129.927 12.1035V26.0684L144.966 10.8145C145.324 10.349 145.789 10.1162 146.362 10.1162C146.971 10.0804 147.454 10.2415 147.812 10.5996C148.171 10.9219 148.35 11.3695 148.35 11.9424C148.35 12.4795 148.171 12.8913 147.812 13.1777L137.661 23.2754L149.316 37.9922Z" fill="black"/>
</svg>
