<svg width="800" height="150" viewBox="0 0 800 150" fill="none" xmlns="http://www.w3.org/2000/svg">
<rect width="800" height="150" rx="5" fill="#2A98FD"/>
<path d="M639.179 72.0747L643.219 74.2902L648.945 88.4508L636.821 81.8042L639.179 72.0747Z" fill="url(#paint0_linear_244_8)"/>
<path d="M621.763 72.0747L617.723 74.2902L611.996 88.4508L624.121 81.8042L621.763 72.0747Z" fill="url(#paint1_linear_244_8)"/>
<path d="M669.683 110.881C669.761 111.156 669.745 111.449 669.636 111.714C669.527 111.978 669.332 112.198 669.083 112.338C668.836 112.449 668.575 112.529 668.308 112.577C667.489 112.778 666.73 113.176 666.098 113.735C665.995 113.803 665.911 113.896 665.854 114.005C665.797 114.115 665.769 114.237 665.773 114.36C665.831 114.643 666.162 114.762 666.441 114.828C667.029 114.988 667.629 115.098 668.235 115.157C669.467 115.24 670.687 114.902 671.876 114.559C672.328 114.429 673.009 114.233 673.113 113.707C673.134 113.344 673.117 112.98 673.062 112.62L672.983 110.789" fill="#606161"/>
<path d="M676.703 113.066C676.757 113.205 676.769 113.358 676.738 113.505C676.708 113.651 676.635 113.786 676.53 113.892C676.316 114.102 676.072 114.278 675.806 114.414C675.103 114.841 674.483 115.391 673.976 116.039C673.743 116.337 673.524 116.726 673.672 117.075C673.75 117.236 673.875 117.371 674.03 117.461C674.537 117.757 675.121 117.891 675.707 117.848C677.183 117.81 679.365 116.886 679.792 115.286C679.927 114.79 679.779 114.111 679.759 113.6L679.706 112.366" fill="#606161"/>
<path d="M668.336 82.5878L669.485 111.331C669.928 111.657 670.459 111.841 671.009 111.858C672.069 111.919 672.259 111.995 673.021 111.301L676.35 81.1557L668.336 80.9878V82.5878Z" fill="#606161"/>
<path d="M668.336 82.5878L669.485 111.331C669.928 111.657 670.459 111.841 671.009 111.858C672.069 111.919 672.259 111.995 673.021 111.301L676.35 81.1557L668.336 80.9878V82.5878Z" fill="url(#paint2_linear_244_8)"/>
<path d="M672.864 85.1695L676.167 113.124C676.167 113.124 676.644 113.615 677.945 113.633C679.421 113.651 679.556 113.45 679.886 112.702L680.539 80.6367L672.955 81.9314L672.864 85.1695Z" fill="#606161"/>
<path d="M672.864 85.1695L676.167 113.124C676.167 113.124 676.644 113.615 677.945 113.633C679.421 113.651 679.556 113.45 679.886 112.702L680.539 80.6367L672.955 81.9314L672.864 85.1695Z" fill="url(#paint3_linear_244_8)"/>
<path d="M671.835 82.3717C672.87 82.7221 673.936 82.9725 675.018 83.1195C676.454 83.267 677.958 82.5726 679.083 82.5141C680.585 82.4378 680.625 82.3895 680.625 81.4102C680.625 80.9167 668.141 79.7339 668.141 79.7339C668.141 79.7339 668.199 80.6369 668.196 81.4712C668.196 82.0969 668.463 82.0613 669.599 82.1275C670.735 82.1936 670.953 81.8477 671.835 82.3717Z" fill="#F2FBFF"/>
<path d="M676.761 60.3025C676.761 60.3025 678.854 60.8468 680.348 61.9355C681.271 62.607 680.633 81.4097 680.633 81.4097C680.541 81.3945 676.53 83.0224 672.65 82.3534C669.347 81.7836 668.156 80.232 668.156 80.232C668.156 80.232 667.858 62.1899 668.501 61.4497C668.786 61.119 671.928 59.9565 671.928 59.9565C671.928 59.9565 673.3 62.022 676.761 60.3025Z" fill="url(#paint4_linear_244_8)"/>
<path d="M676.075 56.126L676.761 60.3027C676.761 60.3027 675.236 62.5512 673.288 62.2155C671.339 61.8797 671.829 60.9742 671.829 60.9742L672.083 57.4461C672.083 57.4461 673.834 57.7539 676.075 56.126Z" fill="#C8A59C"/>
<path d="M676.316 57.5911L676.062 56.126C673.821 57.7539 672.658 57.062 672.658 57.062L672.117 58.9571C672.421 59.276 672.831 59.4731 673.27 59.5116C674.358 59.5879 675.445 58.7358 676.316 57.5911Z" fill="#B58B81"/>
<path d="M676.674 59.7993L678.707 60.7557C678.707 60.7557 675.506 64.1439 674.53 64.0777C674.53 64.0777 673.608 62.3633 672.752 62.0937L676.674 59.7993Z" fill="#F2FBFF"/>
<path d="M671.967 60.3814C672.135 60.9885 672.397 61.5654 672.744 62.0908C672.554 62.1645 671.311 63.0319 671.291 63.617C671.291 63.617 670.056 60.8189 670.567 60.3789C670.994 60.1612 671.432 59.9667 671.88 59.7964L671.967 60.3814Z" fill="#F2FBFF"/>
<path d="M677.831 53.0839C677.665 55.4011 675.29 59.4964 672.978 59.3311C670.666 59.1657 669.993 54.371 670.158 52.0537C670.323 49.7364 671.621 48.4213 673.938 48.5867C674.489 48.626 675.026 48.7736 675.52 49.0209C676.013 49.2682 676.453 49.6104 676.815 50.0281C677.176 50.4457 677.452 50.9305 677.626 51.4548C677.801 51.9791 677.87 52.5327 677.831 53.0839Z" fill="#C8A59C"/>
<path d="M672.381 78.4363C672.437 77.9937 672.228 77.5689 672.167 76.816C672.106 76.0631 672.594 75.8672 673.308 75.7986C673.504 75.7757 673.656 75.7528 673.786 75.7324C674.451 75.8927 673.92 76.7016 673.885 77.2586C673.849 77.8157 673.974 78.6144 673.781 78.7848C673.699 78.8586 673.087 78.8255 672.378 78.7339C672.367 78.635 672.368 78.535 672.381 78.4363Z" fill="#B58B81"/>
<path d="M671.941 56.9373C671.941 56.9373 672.005 56.8788 672.49 56.9144C673.066 56.9438 673.644 56.9028 674.21 56.7923C674.584 56.6982 674.761 56.7567 674.718 57.2578C674.675 57.7589 674.284 58.204 673.303 58.2575C672.203 58.316 671.741 57.9014 671.654 57.4053C671.593 57.0467 671.819 56.9271 671.941 56.9373Z" fill="#C8A59C"/>
<path d="M676.167 76.2337C675.754 76.1459 675.348 76.032 674.95 75.8929C674.426 75.6945 674.261 75.8115 673.494 75.8929C672.726 75.9743 672.2 76.1701 672.267 76.9409C672.333 77.7116 672.554 78.144 672.495 78.5942C672.437 79.0445 672.577 79.4311 673.257 79.4464C673.938 79.4616 676.167 78.7748 676.167 78.7748" fill="#C8A59C"/>
<path d="M676.908 76.0327H675.742C675.742 76.0327 675.234 77.7166 675.894 78.8842L677.183 78.8307C677.183 78.8307 676.746 77.1926 676.908 76.0327Z" fill="#F2FBFF"/>
<path d="M676.319 76.849C676.177 76.849 676.062 76.7272 676.062 76.5769C676.062 76.4265 676.177 76.3047 676.319 76.3047C676.461 76.3047 676.576 76.4265 676.576 76.5769C676.576 76.7272 676.461 76.849 676.319 76.849Z" fill="#D2E8EC"/>
<path d="M671.774 54.1778C671.812 54.0306 671.82 53.8772 671.799 53.7266C671.778 53.576 671.727 53.4311 671.649 53.3003C671.573 53.1688 671.471 53.054 671.35 52.9627C671.229 52.8714 671.09 52.8054 670.943 52.7687C670.794 52.7226 670.637 52.7073 670.481 52.7237C670.326 52.7401 670.175 52.7878 670.039 52.8641C669.902 52.9403 669.783 53.0434 669.687 53.1672C669.592 53.291 669.522 53.4329 669.483 53.5844C669.444 53.7358 669.436 53.8936 669.459 54.0482C669.483 54.2029 669.537 54.3512 669.62 54.4842C669.702 54.6171 669.81 54.732 669.938 54.8219C670.066 54.9118 670.211 54.9748 670.364 55.0071H670.404C670.695 55.0724 671 55.0226 671.255 54.8681C671.511 54.7135 671.696 54.4662 671.774 54.1778ZM670.874 53.0383C671.1 53.0969 671.292 53.2426 671.41 53.4433C671.529 53.6441 671.562 53.8835 671.504 54.1092C671.461 54.2765 671.37 54.4275 671.242 54.5433C671.114 54.659 670.954 54.7345 670.784 54.7601C670.613 54.7858 670.438 54.7606 670.282 54.6876C670.125 54.6147 669.994 54.4972 669.904 54.3499C669.813 54.2025 669.769 54.0319 669.775 53.8591C669.781 53.6864 669.837 53.5193 669.937 53.3786C670.038 53.2379 670.177 53.1299 670.338 53.068C670.499 53.0061 670.675 52.9932 670.844 53.0307L670.874 53.0383Z" fill="#292F67"/>
<path d="M674.134 55.0247C674.283 54.9374 674.413 54.8214 674.517 54.6834C674.62 54.5454 674.696 54.3882 674.739 54.2209C674.803 53.9697 674.792 53.705 674.706 53.4602C674.62 53.2154 674.464 53.0016 674.257 52.8457C674.05 52.6897 673.801 52.5987 673.543 52.5841C673.284 52.5695 673.027 52.632 672.804 52.7636C672.58 52.8952 672.401 53.0901 672.288 53.3236C672.176 53.5572 672.135 53.8189 672.17 54.0758C672.206 54.3327 672.317 54.5733 672.489 54.767C672.662 54.9608 672.887 55.0992 673.138 55.1646H673.186C673.508 55.2411 673.848 55.1911 674.134 55.0247ZM673.727 52.8906C673.86 52.9243 673.985 52.9841 674.094 53.0666C674.204 53.149 674.296 53.2524 674.365 53.3708C674.434 53.4892 674.478 53.6202 674.496 53.7561C674.514 53.892 674.505 54.0301 674.469 54.1624C674.418 54.3589 674.311 54.5361 674.16 54.6718C674.009 54.8076 673.822 54.8959 673.621 54.9259C673.421 54.9559 673.216 54.9261 673.032 54.8404C672.848 54.7547 672.693 54.6167 672.587 54.4437C672.481 54.2706 672.428 54.0702 672.435 53.8673C672.442 53.6644 672.508 53.4679 672.625 53.3024C672.743 53.1369 672.906 53.0096 673.096 52.9364C673.285 52.8632 673.491 52.8472 673.689 52.8906H673.727Z" fill="#292F67"/>
<path d="M671.804 53.9028L671.537 53.8239C671.554 53.7701 671.583 53.7209 671.622 53.68C671.661 53.639 671.708 53.6073 671.761 53.5873C671.879 53.555 672.002 53.549 672.122 53.5696C672.243 53.5903 672.357 53.6371 672.457 53.7069L672.325 53.9613C672.053 53.8137 671.921 53.829 671.868 53.8519C671.841 53.86 671.818 53.8782 671.804 53.9028Z" fill="#292F67"/>
<path d="M674.63 53.829L674.64 53.5518L676.225 53.5975L676.212 53.8748L674.63 53.829Z" fill="#292F67"/>
<path d="M663.778 78.4721L670.051 78.3805C670.214 78.3897 670.376 78.3605 670.525 78.2954C670.674 78.2303 670.806 78.131 670.91 78.0055C671.014 77.88 671.087 77.7319 671.123 77.573C671.159 77.4141 671.158 77.249 671.118 77.0909L668.722 65.9878C668.629 65.6303 668.42 65.3138 668.128 65.0875C667.836 64.8612 667.478 64.7377 667.109 64.7363L660.836 64.8279C660.673 64.8182 660.511 64.8469 660.361 64.9119C660.212 64.9769 660.08 65.0762 659.976 65.2018C659.872 65.3274 659.799 65.4758 659.763 65.6349C659.727 65.794 659.729 65.9594 659.769 66.1175L662.162 77.2206C662.256 77.5783 662.466 77.8948 662.758 78.1211C663.05 78.3474 663.409 78.4708 663.778 78.4721Z" fill="url(#paint5_linear_244_8)"/>
<path d="M659.692 70.8995C659.697 70.6534 659.75 70.4106 659.847 70.1847C659.914 69.9553 660.049 69.7514 660.234 69.5997C660.438 69.4845 660.67 69.4282 660.904 69.4369C661.141 69.4369 661.379 69.4369 661.616 69.4369C661.876 69.4326 662.135 69.4793 662.378 69.5743C662.725 69.7635 662.995 70.0686 663.14 70.4366C663.465 71.131 663.534 72.0136 663.069 72.6216C662.864 72.863 662.622 73.0707 662.353 73.2371C662.06 73.4381 661.717 73.6492 661.374 73.5551C661.211 73.4976 661.062 73.4057 660.937 73.2855L660.429 72.8632C660.256 72.7341 660.109 72.5726 659.997 72.3876C659.904 72.1486 659.859 71.8936 659.865 71.6372C659.795 71.3943 659.738 71.1482 659.692 70.8995Z" fill="#C8A59C"/>
<path d="M670.468 49.0495C670.794 48.2754 671.271 47.5742 671.87 46.9866L671.919 47.4521C672.871 47.0167 673.899 46.7713 674.945 46.7297L674.853 47.0553C675.234 46.9601 675.599 46.812 675.938 46.6152L676.266 47.2003C676.488 47.0234 676.733 46.8755 676.992 46.7602L677.417 48.2864C677.537 48.2222 677.648 48.1427 677.747 48.0499C677.859 47.9735 678.039 47.9507 678.11 48.0651C678.138 48.1202 678.149 48.1819 678.143 48.2432V48.8994L678.768 48.6756C678.795 48.6631 678.824 48.6566 678.853 48.6566C678.883 48.6566 678.912 48.6631 678.939 48.6756C678.959 48.6928 678.976 48.7141 678.989 48.7382C679.001 48.7623 679.008 48.7886 679.01 48.8155C679.464 51.0895 678.502 54.0478 677.005 55.8156C676.948 55.5433 676.976 55.2597 677.086 55.0042C677.211 54.6786 677.595 54.4955 677.528 54.1521C677.511 53.9785 677.43 53.8175 677.301 53.7001C677.172 53.5827 677.004 53.5172 676.83 53.5162C676.344 53.5721 676.525 53.7502 676.179 54.0961C676.057 53.4221 676.35 52.3156 676.139 51.6669C676.069 51.4963 675.96 51.3443 675.821 51.2232C675.682 51.1021 675.517 51.0152 675.338 50.9695C675.16 50.9238 674.973 50.9205 674.793 50.9599C674.613 50.9993 674.445 51.0802 674.302 51.1964C674.317 50.7639 673.809 50.4867 673.377 50.5019C672.945 50.5172 672.455 50.6825 671.997 50.7385C671.609 50.7843 671.21 51.0565 670.836 51.0514C669.876 51.0361 670.262 49.5913 670.468 49.0495Z" fill="#606161"/>
<path d="M630.896 105.178C621.083 105.178 613.127 104.209 613.127 103.013C613.127 101.818 621.083 100.849 630.896 100.849C640.71 100.849 648.666 101.818 648.666 103.013C648.666 104.209 640.71 105.178 630.896 105.178Z" stroke="white" stroke-width="4.36952" stroke-miterlimit="10"/>
<path d="M630.5 36.1226C630.5 36.1226 649.593 47.3477 638.376 82.356H622.812C622.812 82.356 611.257 54.4979 630.5 36.1226Z" fill="url(#paint6_linear_244_8)"/>
<path d="M637.071 94.6548L635.15 91.1522C634.81 95.4518 633.756 99.6643 632.03 103.616C628.928 100.526 628.15 95.8605 627.551 91.5211C626.67 93.6509 625.883 95.8156 625.19 98.015C623.782 95.2192 623.323 92.0402 623.882 88.9596L622.688 90.9945C621.872 88.0427 622.224 84.8894 623.671 82.1909C626.137 82.3741 628.608 82.4953 631.085 82.5547C632.27 82.5852 633.461 82.6005 634.657 82.6005C635.442 82.6005 636.888 82.2927 637.604 82.692C638.981 83.4551 638.478 86.7441 638.392 88.0947C638.32 89.2116 638.174 90.3223 637.952 91.4193C637.848 91.9357 636.875 94.2987 637.071 94.6548Z" fill="url(#paint7_linear_244_8)"/>
<path d="M634.428 90.2566L633.259 88.1199C633.051 90.7419 632.407 93.3106 631.354 95.7204C629.464 93.8355 628.988 90.9892 628.623 88.3438C628.084 89.6444 627.604 90.9654 627.182 92.3068C626.324 90.6009 626.044 88.6615 626.384 86.782L625.658 88.0284C625.156 86.224 625.371 84.2953 626.257 82.646C627.761 82.7579 629.268 82.8325 630.777 82.8698C631.504 82.8868 632.23 82.8953 632.957 82.8953C633.435 82.8953 634.316 82.707 634.753 82.9512C635.594 83.4218 635.289 85.4237 635.236 86.258C635.191 86.9415 635.101 87.6213 634.967 88.2929C634.903 88.5982 634.311 90.0404 634.428 90.2566Z" fill="url(#paint8_linear_244_8)"/>
<path d="M634.403 39.6965C634.403 39.6965 630.444 41.0319 627.225 39.6965L630.46 36.1761C630.531 36.0983 630.619 36.0368 630.716 35.9958C630.813 35.9548 630.918 35.9352 631.024 35.9383C631.129 35.9414 631.233 35.9673 631.327 36.014C631.422 36.0607 631.506 36.1273 631.573 36.2091L634.403 39.6965Z" fill="url(#paint9_linear_244_8)"/>
<path d="M624.054 95.1098C621.392 95.3641 619.695 95.7788 619.695 96.2315C619.695 97.0353 625.03 97.6865 631.636 97.6865C638.242 97.6865 643.577 97.0353 643.577 96.2315C643.577 95.5676 639.908 95.0055 634.901 94.8325" stroke="white" stroke-width="2.93412" stroke-miterlimit="10"/>
<path d="M67.1708 76.8442C68.6292 73.1225 69.8887 68.4372 70.3196 64.217L75.1258 65.2139C74.8606 66.1443 74.496 67.7726 74.3303 68.5369C73.8994 70.8629 72.673 75.4154 71.5129 78.5389C70.3528 81.7622 68.364 85.5171 66.6404 88.0093L62 86.0488C64.055 83.3572 66.0107 79.7684 67.1708 76.8442ZM83.5117 76.1464C82.2522 72.6573 80.1308 67.7394 78.7055 65.2139L83.114 63.785C84.5061 66.3437 86.76 71.4611 88.0196 74.6843C89.2128 77.675 90.9695 82.9917 91.8645 86.2814L86.992 87.8764C86.0639 83.9221 84.8375 79.7352 83.5117 76.1464Z" fill="#F2F2F2"/>
<path d="M110.227 68.0717C110.857 69.4673 112.481 73.8204 112.945 75.3489L109.001 76.7113C108.57 75.1163 107.112 71.0955 106.316 69.3676L110.227 68.0717ZM122.458 70.4642C122.094 71.5607 121.895 72.2586 121.696 72.9232C120.834 76.2793 119.409 79.7352 117.155 82.6262C114.072 86.6469 109.962 89.405 106.084 90.9003L102.604 87.3448C106.217 86.3479 110.857 83.8224 113.575 80.3666C115.829 77.5753 117.453 73.1558 117.818 68.9688L122.458 70.4642ZM102.537 69.7996C103.366 71.4943 104.99 75.5483 105.62 77.4091L101.576 78.9045C101.046 77.1433 99.3555 72.6905 98.56 71.2617L102.537 69.7996Z" fill="#F2F2F2"/>
<path d="M144.301 61.1267C144.202 61.9242 144.102 63.3198 144.069 64.1173C143.705 77.3094 140.589 84.055 133.264 89.2721L129.386 86.1485C130.778 85.3842 132.435 84.2876 133.761 82.9252C138.103 78.6054 139.628 72.9564 139.661 64.1838C139.661 63.4528 139.528 61.9242 139.396 61.1267H144.301ZM155.538 68.271C155.438 68.8027 155.339 69.6334 155.339 69.999C155.206 73.621 154.775 82.892 153.35 86.2814C152.654 87.9429 151.361 88.8401 149.107 88.8401C147.185 88.8401 145.229 88.6739 143.605 88.541L143.075 84.1215C144.732 84.3873 146.423 84.5867 147.749 84.5867C148.809 84.5867 149.273 84.2212 149.605 83.3904C150.566 81.297 151.03 74.6511 151.03 71.0623H134.855C133.728 71.0623 131.872 71.0955 130.479 71.2285V66.8422C131.872 67.0083 133.562 67.0748 134.822 67.0748H150.168C151.03 67.0748 151.892 67.0083 152.687 66.8422L155.538 68.271Z" fill="#F2F2F2"/>
<path d="M167.868 85.8494C173.238 83.6231 176.817 80.3001 179.204 76.811C181.69 73.2555 182.618 69.5337 183.148 66.7757C183.447 65.2804 183.579 63.5857 183.546 62.7882L188.916 63.5192C188.551 64.7819 188.153 66.4434 187.955 67.4071C187.093 71.2949 185.767 75.3489 183.347 79.0706C180.762 83.0582 177.083 86.7134 171.846 89.2721L167.868 85.8494ZM167.205 62.9211C168.829 65.2804 171.68 70.3645 172.906 72.6906L168.564 75.1495C166.907 71.594 164.454 67.2741 162.929 65.1142L167.205 62.9211Z" fill="#F2F2F2"/>
<path d="M200.948 62.5223C203.235 64.0841 207.544 67.54 209.499 69.567L206.118 73.0228C204.395 71.162 200.219 67.54 197.799 65.8785L200.948 62.5223ZM196.771 84.6532C201.975 83.9221 206.251 82.2274 209.466 80.3333C215.134 76.9439 219.443 71.893 221.564 67.4071L224.117 72.0592C221.631 76.5784 217.222 81.1641 211.886 84.3873C208.505 86.4143 204.229 88.242 199.589 89.0395L196.771 84.6532Z" fill="#F2F2F2"/>
<path d="M241.154 61.7913C240.955 62.6552 240.756 63.7186 240.59 64.5493C240.259 66.0447 239.861 68.1049 239.496 69.7996C238.403 74.4849 235.751 83.9553 232.271 89.5711L227.928 87.8432C231.873 82.5265 234.359 73.7539 235.287 69.567C235.917 66.5763 236.281 63.7518 236.248 61.2596L241.154 61.7913ZM252.589 65.1142C254.611 68.0052 257.395 74.1859 258.423 77.3427L254.213 79.3032C253.351 75.6147 250.998 69.7664 248.612 66.8089L252.589 65.1142ZM227.73 68.6033C228.923 68.6698 230.05 68.6366 231.276 68.6033C233.928 68.5369 240.226 67.8058 242.678 67.8058C246.192 67.8058 248.678 69.3676 248.678 74.1859C248.678 78.107 248.181 83.4901 246.789 86.3479C245.695 88.6739 243.839 89.405 241.353 89.405C240.06 89.405 238.502 89.2056 237.375 88.9398L236.646 84.5535C237.939 84.919 239.828 85.2513 240.69 85.2513C241.817 85.2513 242.678 84.919 243.176 83.8224C244.104 81.9616 244.535 77.9076 244.535 74.6511C244.535 71.9927 243.408 71.594 241.319 71.594C239.364 71.594 233.63 72.325 231.807 72.5576C230.845 72.6905 229.122 72.9232 228.127 73.0893L227.73 68.6033ZM251.992 60.5286C252.821 61.7248 253.981 63.8515 254.611 65.081L251.959 66.2108C251.263 64.8484 250.236 62.8879 249.341 61.5919L251.992 60.5286ZM255.904 59C256.765 60.2627 257.992 62.3894 258.588 63.5524L255.937 64.6822C255.274 63.2866 254.18 61.3593 253.285 60.0966L255.904 59Z" fill="#F2F2F2"/>
<path d="M272.941 62.1236H288.088V65.8785H272.941V62.1236ZM286.663 62.1236H290.74C290.74 62.1236 290.74 63.6189 290.707 64.1506C290.375 80.8318 290.044 86.6802 288.784 88.4746C287.923 89.8037 287.061 90.2357 285.834 90.5016C284.608 90.7342 282.785 90.7009 280.995 90.6345C280.929 89.5047 280.432 87.7103 279.736 86.514C281.492 86.6802 283.017 86.6802 283.813 86.6802C284.376 86.6802 284.707 86.514 285.072 86.0156C286.066 84.8525 286.398 78.8048 286.663 63.0872V62.1236ZM277.78 63.8515H281.857C281.625 74.1526 281.161 84.7529 273.206 90.8006C272.51 89.7373 271.283 88.4081 270.223 87.6771C277.614 82.46 277.614 73.0228 277.78 63.8515ZM265.052 76.7113L268.963 72.026V90.7674H265.052V76.7113ZM260.743 65.4798H270.654V69.0353H260.743V65.4798ZM265.052 59.5981H268.963V67.4071H265.052V59.5981ZM268.565 74.1859C269.659 75.0498 273.272 78.5057 274.134 79.3697L271.781 82.4268C270.587 80.6656 267.869 77.4424 266.477 76.0135L268.565 74.1859ZM269.56 65.4798H270.322L271.018 65.2804L273.239 66.7757C270.852 73.189 266.212 79.4361 261.87 82.8588C261.505 81.8619 260.445 79.9014 259.815 79.2035C263.826 76.4123 267.869 71.0623 269.56 66.244V65.4798ZM272.443 71.7934L274.996 73.92C273.57 75.2492 272.377 76.7778 271.35 77.7414L269.527 76.1464C270.455 75.0166 271.781 73.0893 272.443 71.7934Z" fill="#F2F2F2"/>
<path d="M315.566 61.7248C315.268 62.6552 314.97 64.2835 314.771 65.081C313.379 70.9626 311.224 77.8744 308.042 81.8951C304.993 85.7497 302.871 87.4777 299.822 87.4777C297.071 87.4777 294.552 85.1516 294.552 80.865C294.552 76.4123 297.104 71.6604 300.982 69.1682C304.529 66.8754 307.876 66.0447 311.423 66.0447C318.251 66.0447 323.157 70.6636 323.157 77.5753C323.157 84.6199 318.152 88.6739 311.224 89.7373L308.705 85.8827C315.997 85.2513 318.848 81.5296 318.848 77.3759C318.848 72.8567 315.765 69.7331 310.992 69.7331C307.545 69.7331 304.86 70.9958 302.54 72.6906C299.955 74.5182 298.43 77.7747 298.43 80.4995C298.43 82.1277 299.126 83.1578 300.286 83.1578C302.01 83.1578 303.833 81.0312 305.556 78.406C308.109 74.6511 310.031 68.5369 310.727 64.4496C310.893 63.486 310.992 62.0903 310.959 61.2928L315.566 61.7248ZM301.579 62.8214C301.744 63.9512 302.01 65.0478 302.275 66.0114C303.302 69.7331 305.059 74.8172 306.584 77.2098C307.711 79.0042 309.269 81.0976 310.826 82.5597L307.446 85.2513C306.153 83.7892 305.159 82.5265 304.098 80.8318C302.076 77.8744 300.087 72.5576 298.562 67.6397C298.198 66.4766 297.8 65.4133 297.203 64.217L301.579 62.8214Z" fill="#F2F2F2"/>
<path d="M327.897 64.9481C329.189 64.9149 330.515 64.8484 331.145 64.7819C333.929 64.5161 339.365 64.0509 345.464 63.5192C348.878 63.2201 352.491 63.0208 354.844 62.9211L354.877 67.2077C353.088 67.2077 350.237 67.2409 348.447 67.6397C344.47 68.703 341.453 73.0228 341.453 76.9439C341.453 82.4268 346.558 84.3873 352.159 84.6864L350.635 89.2388C343.674 88.8069 337.111 85.0519 337.111 77.8411C337.111 73.0561 339.796 69.3011 342.05 67.6064C338.934 67.9387 332.172 68.6366 328.328 69.5005L327.897 64.9481Z" fill="#F2F2F2"/>
<path d="M378.278 65.0145C377.814 68.4039 377.151 72.2918 375.991 76.2129C374.003 82.9252 371.152 87.0457 367.539 87.0457C363.827 87.0457 360.777 82.9585 360.777 77.3427C360.777 69.6999 367.44 63.1205 376.025 63.1205C384.212 63.1205 389.415 68.8359 389.415 76.1132C389.415 83.0914 385.14 88.0426 376.787 89.3385L374.268 85.4174C375.56 85.2513 376.489 85.0851 377.383 84.8858C381.593 83.8557 384.908 80.8318 384.908 75.947C384.908 70.73 381.659 67.0083 375.925 67.0083C368.898 67.0083 365.053 72.757 365.053 76.9439C365.053 80.3001 366.379 81.9283 367.639 81.9283C369.064 81.9283 370.323 79.8017 371.716 75.3157C372.677 72.1921 373.406 68.3707 373.737 64.8816L378.278 65.0145Z" fill="#F2F2F2"/>
<path d="M393.36 64.8816H423.423V68.703H393.36V64.8816ZM404.431 73.0228H417.125V76.811H404.431V73.0228ZM415.667 73.0228H419.777C419.777 73.0228 419.744 74.2191 419.645 74.7508C419.048 83.8557 418.352 87.6106 417.026 89.0727C416.032 90.136 414.971 90.4683 413.446 90.6345C412.187 90.7342 409.966 90.7009 407.745 90.6345C407.679 89.4714 407.082 87.81 406.32 86.7134C408.607 86.9128 410.96 86.9128 411.922 86.9128C412.651 86.9128 413.115 86.8795 413.546 86.514C414.54 85.6501 415.17 81.8619 415.634 73.6542L415.667 73.0228ZM402.939 67.1412H407.414C406.917 76.0467 406.022 85.7497 395.614 91C395.017 89.9367 393.824 88.4746 392.763 87.6438C402.409 83.1578 402.608 74.7176 402.939 67.1412ZM406.154 59.3988H410.264V66.3769H406.154V59.3988Z" fill="#F2F2F2"/>
<path d="M426.207 77.9076C427.202 77.1101 427.997 76.3458 428.992 75.3157C430.55 73.7207 433.069 70.298 435.157 67.9055C437.477 65.2471 439.598 65.0145 442.018 67.3738C444.305 69.567 446.924 72.9896 448.879 75.1495C451.001 77.4756 453.851 80.433 457 83.2575L453.553 87.2451C451.199 84.9855 448.382 81.7954 446.261 79.3032C444.206 76.8775 441.72 73.6874 440.195 71.9263C439.002 70.6636 438.372 70.8297 437.411 72.026C436.085 73.7207 433.765 77.0104 432.339 78.9045C431.577 79.9678 430.815 81.1641 430.218 82.028L426.207 77.9076Z" fill="#F2F2F2"/>
<path d="M496.882 75L476.091 88.8564V61.1436L496.882 75Z" fill="#F2F2F2"/>
<path d="M487.722 75L466.931 88.8564V61.1436L487.722 75Z" fill="#2A98FD"/>
<defs>
<linearGradient id="paint0_linear_244_8" x1="641.176" y1="68.3203" x2="646.74" y2="123" gradientUnits="userSpaceOnUse">
<stop stop-color="#010101" stop-opacity="0"/>
<stop offset="0.95" stop-color="#010101"/>
</linearGradient>
<linearGradient id="paint1_linear_244_8" x1="616.608" y1="70.8181" x2="622.169" y2="125.498" gradientUnits="userSpaceOnUse">
<stop stop-color="#010101" stop-opacity="0"/>
<stop offset="0.95" stop-color="#010101"/>
</linearGradient>
<linearGradient id="paint2_linear_244_8" x1="663.763" y1="103.359" x2="695.654" y2="70.1381" gradientUnits="userSpaceOnUse">
<stop stop-color="#010101" stop-opacity="0"/>
<stop offset="0.95" stop-color="#010101"/>
</linearGradient>
<linearGradient id="paint3_linear_244_8" x1="668.24" y1="100.409" x2="700.649" y2="89.3439" gradientUnits="userSpaceOnUse">
<stop stop-color="#010101" stop-opacity="0"/>
<stop offset="0.95" stop-color="#010101"/>
</linearGradient>
<linearGradient id="paint4_linear_244_8" x1="674.111" y1="67.8953" x2="677.946" y2="117.165" gradientUnits="userSpaceOnUse">
<stop stop-color="#010101" stop-opacity="0"/>
<stop offset="0.95" stop-color="#010101"/>
</linearGradient>
<linearGradient id="paint5_linear_244_8" x1="665.859" y1="59.9797" x2="664.397" y2="100.767" gradientUnits="userSpaceOnUse">
<stop stop-color="#010101" stop-opacity="0"/>
<stop offset="0.95" stop-color="#010101"/>
</linearGradient>
<linearGradient id="paint6_linear_244_8" x1="644.507" y1="60.1652" x2="623.081" y2="59.0562" gradientUnits="userSpaceOnUse">
<stop stop-color="white" stop-opacity="0"/>
<stop offset="0.95" stop-color="white"/>
</linearGradient>
<linearGradient id="paint7_linear_244_8" x1="630.81" y1="100.292" x2="629.473" y2="55.6149" gradientUnits="userSpaceOnUse">
<stop stop-color="#010101" stop-opacity="0"/>
<stop offset="0.95" stop-color="#010101"/>
</linearGradient>
<linearGradient id="paint8_linear_244_8" x1="630.609" y1="93.6956" x2="629.797" y2="66.4455" gradientUnits="userSpaceOnUse">
<stop stop-color="#010101" stop-opacity="0"/>
<stop offset="0.95" stop-color="#010101"/>
</linearGradient>
<linearGradient id="paint9_linear_244_8" x1="628.935" y1="38.5213" x2="639.147" y2="36.7473" gradientUnits="userSpaceOnUse">
<stop stop-color="#010101" stop-opacity="0"/>
<stop offset="0.95" stop-color="#010101"/>
</linearGradient>
</defs>
</svg>
